<?xml version="1.0" encoding="utf-8"?>
<!-- Generator: Adobe Illustrator 27.5.0, SVG Export Plug-In . SVG Version: 6.00 Build 0)  -->
<svg version="1.0" id="Logotype" xmlns="http://www.w3.org/2000/svg" xmlns:xlink="http://www.w3.org/1999/xlink" x="0px" y="0px"
	 viewBox="0 0 900 800" style="enable-background:new 0 0 900 800;" xml:space="preserve">
<style type="text/css">
	.st0{fill:none;stroke:#000000;stroke-width:2.4293;stroke-miterlimit:10;}
	.st1{stroke:#000000;stroke-width:1.4189;stroke-miterlimit:10;}
	.st2{stroke:#000000;stroke-width:1.9032;stroke-miterlimit:10;}
</style>
<g id="New_Logo">
	<g id="logo_img_00000049195169738006371070000008621150561894219929_">
		
			<ellipse id="ball_00000030472527446240669990000003326418984367167148_" class="st0" cx="468.5" cy="411.5" rx="267.6" ry="268.1"/>
		<g id="juice_00000075877135865379845940000017750156966870494880_">
			<path id="liquid_00000014610410760887692610000008546113051576198302_" class="st0" d="M685.8,498.6
				c-3.9,52.9-95.3,152.3-208.6,151.3c-115.8-1-176.6-58.6-204.5-100.9c-105.5-159.8,22.5-256.7,194.1-89.8
				C576.2,565.6,688.8,458.8,685.8,498.6z"/>
			<g id="balls_00000042016385069145176910000001963907912886513044_">
				<ellipse class="st1" cx="323.7" cy="440.4" rx="14.1" ry="14.1"/>
				<ellipse class="st1" cx="430.6" cy="592.1" rx="14.1" ry="14.1"/>
				<ellipse class="st1" cx="599.6" cy="561.2" rx="14.1" ry="14.1"/>
				<ellipse class="st1" cx="426.5" cy="489.8" rx="14.1" ry="14.1"/>
				<ellipse class="st2" cx="339.7" cy="530" rx="18.9" ry="19"/>
				<ellipse class="st2" cx="511.4" cy="553.5" rx="18.9" ry="19"/>
			</g>
		</g>
	</g>
	<g>
		<path d="M431,291c-5.5,13.6-13.6,23.8-24.1,30.5c-11.8,7.7-24.3,8.8-37.3,3.5c-3.7-1.5-7.4-3.8-11.1-7c-8.2-6.9-12.9-14.9-13.9-24
			c-0.9-7.9,0.9-17.2,5.2-28c5.7-14,14.1-25,25.1-32.9c12.9-9.4,25.9-11.5,39.2-6.1c11.6,4.7,18.7,13.9,21.2,27.6
			C437.4,266.5,436,278.6,431,291z M417.9,284.2c8-19.7,6.4-34-4.7-43.1c-1.2-0.9-2.6-1.7-4.3-2.4c-5.3-2.2-11.6-1.9-18.8,0.6
			c-11.5,4.2-21.3,16.2-29.3,35.9c-0.7,1.8-1.4,4.5-1.9,8c-1.4,7.9-1.1,14.2,0.8,18.7c2.1,5.3,6.8,9.4,13.9,12.2
			c9.7,3.9,18.8,2.2,27.6-5.2C408,303.1,413.5,294.8,417.9,284.2z"/>
		<path d="M478.7,309.4c-0.3,0.7-0.8,1.7-1.6,3c-3.1,2-5.8,2.6-8,1.7c-1.8-0.7-3-2.4-3.6-5.1c1.5-4.3,0.9-7.1-1.9-8.2
			c-1.7-0.7-5.6,3-11.7,10.9c-2.7,3.5-5.6,8.8-8.4,15.9c-2.7,6.7-4.1,10.9-4,12.6c0,2.1-0.2,3.5-0.4,4.1c-0.7,1.6-1.9,2.6-3.8,3
			c-1.9,0.4-3.7,0.2-5.5-0.5c-5.1-2.1-6.6-5.5-4.7-10.2c0.2-0.5,0.6-1.1,1.2-1.8c0.6-0.8,0.9-1.3,1.1-1.7c2-4.8,4.6-12.1,8-21.8
			c3.4-9.7,6-16.9,8-21.6c1.7-4.3,5.2-5.3,10.3-3.3c3,1.2,4.7,3,5.2,5.2c3.8-1.9,7.4-2.1,10.7-0.8c2.3,0.9,4.2,2.4,5.8,4.5
			c1.1,1.3,2.1,3.6,3,6.9C479.2,305.6,479.3,307.9,478.7,309.4z"/>
		<path d="M526.3,348c-3.5,8.5-7.9,15.2-13.2,19.9c-6.9,6.1-14.2,7.6-21.8,4.5c-2.5-1-6-3.5-10.5-7.4c-0.2,0.7-0.4,1.3-0.6,1.9
			c-1.3,3.1-3.7,4-7.2,2.6c-2.6-1-4.3-2.8-5.1-5.4c-0.4-1.2,0.2-4.3,1.7-9.6c1.2-4.3,2.3-7.7,3.3-10.1l0.2-0.6l34.7-79.3
			c2.5-1.8,4.7-2,6.6-0.8c0.6,0,1.1,0.1,1.5,0.3c1.7,0.7,2.9,2.4,3.5,5c0.6,2.6,0.6,4.8-0.1,6.6c-1.7,4.1-4.2,9.4-7.8,15.9
			c-4.1,7.5-6.9,12.6-8.1,15.5c4.1-2.2,8.3-2.4,12.7-0.6c5.2,2.1,9.1,5.9,11.8,11.3c2.6,5.4,3.5,11,2.6,16.8
			C529.9,338.2,528.5,342.6,526.3,348z M513.5,341.7c5.2-12.9,5.2-20.4-0.2-22.6c-4.5-1.8-9.3,0-14.3,5.6c-3.8,4.2-6.8,9.1-9.1,14.7
			c-4.8,11.9-3.7,19.3,3.5,22.2C500.3,364.4,507,357.8,513.5,341.7z"/>
		<path d="M564.4,337.4c-0.7,1.7-2,4-4.1,6.8c-2,2.8-3.4,5.1-4.1,6.8l-11.9,29.2c-0.7,1.8-1.3,4.9-1.7,9.2c-2.3,1.6-4.3,2-6.1,1.3
			c-6-2.4-8.1-6.8-6.3-12.9c3.6-11.5,6.5-20,8.7-25.6c3.8-9.4,7.4-17.1,10.7-23.1c0.2-0.5,0.4-0.9,0.6-1.4c0.7-1.7,2.3-2,5-1
			c2.3,0.9,4.5,2.4,6.5,4.3C564.3,333.3,565.2,335.4,564.4,337.4z M573.7,318c-0.8,2.1-2.2,3.5-4.2,4.2c-2,0.7-4,0.7-6.1-0.1
			c-2.5-1-4.4-2.8-5.8-5.4c-1.4-2.6-1.7-5.1-0.7-7.5c0.8-2.1,2.3-3.5,4.3-4.2c2-0.7,4.1-0.6,6.3,0.2c2.6,1,4.5,2.8,5.8,5.3
			C574.6,313,574.8,315.5,573.7,318z"/>
		<path d="M599.6,356.1c-1,2.6-5.6,2.8-13.8,0.7c-1,2-3,6.7-6,14.1l-3.8,9.4c-0.8,1.9-1.6,4.8-2.6,8.7c-0.9,3.9-1.8,6.8-2.5,8.6
			c-0.6,1.5-1.9,2.6-3.9,3.1c-2,0.6-3.7,0.5-5.3-0.1c-2.4-1-3.5-3.8-3.5-8.5c0-3.6,0.6-6.9,1.8-9.8l12.2-30.1
			c-4.1-2.4-6.4-3.9-7-4.3c-2.2-1.8-2.9-3.3-2.4-4.8c0.2-0.4,0.4-0.8,0.8-1.2c3.9-2.5,7.3-3.2,10.4-1.9c0.2,0.1,0.5,0.2,0.8,0.3
			c0.3,0.3,0.6,0.4,0.8,0.5c2,0.8,3.9-1.1,5.7-5.8l4.2-10.4c-0.1-1.2,0.1-2.2,0.4-3c0.5-1.2,1.7-2.1,3.5-2.5
			c1.9-0.4,3.4-0.3,4.8,0.2c2,0.8,3.5,2.5,4.5,5c1,2.6,1.1,4.9,0.3,7c-0.9,2.3-2.2,4.4-3.8,6.3c-1.6,1.9-2.9,4.1-3.7,6.5l-0.2,0.6
			C598.4,348.6,601.1,352.3,599.6,356.1z"/>
		<path d="M649.7,374.4c-0.8,2.1-1.9,3.6-3.2,4.7c-0.8,0.7-2.3,1.4-4.4,2.3c-7.9,3.3-15.7,6.7-23.4,10.1c-11,5-17.9,9.2-20.7,12.3
			c0.8,0.4,1.6,0.8,2.4,1.1c2.2,0.9,5.6,1.8,10.3,2.8c4.7,1,8.1,1.9,10.3,2.8c6.1,2.5,9.1,6.6,9.2,12.3l-3.6,2l-3.8-1.6
			c-3.4-1.5-8.5-3-15.4-4.5c-6.9-1.5-11.9-2.9-15-4.2c-3.1-1.3-5.6-3.1-7.3-5.6c-2.1-2.9-2.6-5.7-1.4-8.7c1.4-3.5,5.5-7.3,12.2-11.3
			c4-2.3,10.6-5.6,19.6-9.7c8.6-3.8,14.1-6.5,16.5-8l-0.7-0.4c-4.7-1.9-10-2.4-15.9-1.4c-5.9,1-8.9,1.4-9.2,1.3
			c-1.8-0.7-3-2-3.7-3.9c-0.7-1.9-0.6-3.7,0.1-5.5c1.3-3.2,7.4-4.3,18.4-3.3c9.2,1,16.1,2.4,20.6,4.2
			C649,365.3,651.8,369.3,649.7,374.4z"/>
	</g>
	<g>
		<g>
			<path d="M124.9,348.9c1.5,0.3,2.7,1,3.8,2.3c0.4,2.1,0.5,3.8,0.4,5.1c0,0.3-0.2,0.7-0.3,1.2c-0.2,0.5-0.3,0.8-0.3,1
				c0.3,1,0.6,2,0.9,3c-0.2,0.9-0.3,1.7-0.5,2.6c0.1,0.5,0.2,1.1,0.3,1.6c-0.1,0.3-0.2,0.5-0.3,0.8c0.3,0.7,0.5,1.4,0.8,2.1
				c-0.2,0.5-0.4,1.1-0.6,1.6c-0.2,2-0.3,3.6-0.4,4.8c0-0.2,0-0.3,0-0.5c0.1,0.7,0.2,1.4,0.3,2.1c0,0.1,0,0.2,0,0.3
				c0.2,0.3,0.4,0.6,0.6,0.8c-0.2,0.5-0.4,1-0.6,1.5c0.1,0.3,0.3,0.6,0.4,0.9c-0.3,0.8-0.6,1.6-0.8,2.4c0.2,0.5,0.4,1,0.6,1.5
				c-0.5,1.8-0.8,2.8-0.8,3.1c0,0.8,0.1,1.9,0.5,3.1c0,1.7,0.1,3.5,0.2,5.2c-0.2,0.1-0.3,0.3-0.5,0.4c0.1,0.7,0.2,1.3,0.4,2
				c0.2,0,0.4,0.1,0.6,0.1c1.6-0.3,3.3-0.6,4.9-0.8c0.2,0.1,0.3,0.2,0.5,0.3c0.3-0.1,0.7-0.2,1-0.3c0.4,0,0.8,0,1.3,0.1
				c1-0.3,2-0.5,2.9-0.7c0.4-0.4,0.8-0.9,1.2-1.3c0.2,0.1,0.4,0.2,0.6,0.2c0.8-0.7,1.7-1.4,2.5-2.1c1.5-2.2,2.3-3.8,2.4-5
				c0-0.1,0-0.1,0-0.2c0-0.1,0-0.3-0.1-0.5c0-0.2,0-0.4,0-0.4c0-0.3,0.1-0.7,0.4-1.2c0-0.3,0-0.7,0-1c-0.1-0.9-0.3-2.3-0.4-4
				c-0.2-0.4-0.3-0.8-0.5-1.2c-0.1-0.1-0.2-0.2-0.4-0.3c0-0.3,0-0.5,0-0.8c-0.1-0.3-0.3-0.6-0.4-0.9c0.1-0.2,0.2-0.3,0.3-0.5
				c-0.1-0.6-0.2-1.2-0.3-1.8c-0.2-0.5-0.4-1-0.6-1.5c-0.2-0.2-0.4-0.4-0.6-0.6c-0.4-0.7-0.7-1.3-1.1-2c0-0.5,0-0.9-0.1-1.4
				c-0.5-0.9-1-1.9-1.5-2.8c-0.1-1.8-1.2-3.3-3.4-4.4c0-0.1,0.1-0.2,0.1-0.3c-0.1-0.1-0.2-0.1-0.3-0.2c0-0.5,0-0.9,0.1-1.4
				c-0.4-0.8-0.9-1.5-1.3-2.3c0-0.3,0-0.5,0-0.8c0-0.2,0-0.5,0-0.8c0.2-1.4,1.5-2,3.9-1.8c1.4,1.8,2.9,3.6,4.4,5.4
				c0,0.4,0.1,0.8,0.1,1.2c0.2,0.2,0.4,0.3,0.5,0.5c0.6,0.8,1.1,1.5,1.7,2.3c0.4,1,0.8,2,1.2,3c0.6,0.9,1.2,1.7,1.8,2.6
				c-0.1,0.2-0.1,0.5-0.2,0.7c0.2,0.3,0.5,0.6,0.7,0.9c0.4,1.6,0.8,3.3,1.2,4.9c0.6,0.7,1.2,1.4,1.8,2.1c-0.2,0.4-0.4,0.9-0.6,1.3
				c0.3,0.2,0.6,0.4,0.8,0.6c-0.1,0.3-0.2,0.6-0.4,0.9c0.1,0.2,0.3,0.4,0.4,0.6c-0.3,1.1-0.5,2.3-0.8,3.4c0.4,1.2,0.8,2.5,1.2,3.7
				c-0.4,1.2-0.8,2.3-1.2,3.5c-0.7,1.5-1.4,3-2.1,4.5c-1.8,3.9-6.5,6.9-14.2,9.1c-0.4,0-0.7,0-1.1,0c-0.7,0.3-1.5,0.6-2.2,0.9
				c-0.3-0.3-0.6-0.6-1-0.9c-0.9,0.2-1.8,0.4-2.7,0.6c-0.3,0-0.6,0.1-0.9,0.1c-0.6,0.7-1.2,1.3-1.9,2c-0.4,0-0.8,0-1.2,0
				c-1.9,0-3.2-0.6-3.9-1.9c-0.5-0.3-1-0.7-1.4-1.3c-0.1,0.2-0.2,0.3-0.3,0.5c-0.9,0-1.8,0-2.7,0c-0.5,0-0.9,0-1.4,0
				c-1-0.5-2.1-1-3.1-1.5c-0.5-0.1-1-0.2-1.6-0.4c0,0.4,0.1,0.8,0.1,1.2c0,0.2,0,0.3,0,0.5c0,1.2-0.3,2.1-0.9,3
				c-0.6,0.8-1.3,1.2-2.2,1.2c-1,0-2.1-0.8-3.3-2.4c-0.2-0.3-0.5-0.6-0.7-0.9c-0.1-0.4-0.3-0.8-0.4-1.1c-0.4-1.4-0.7-2.4-0.6-3.2
				c0-0.2,0-0.4,0-0.6c0-0.2,0-0.6,0-1.3c0-0.2,0-0.3,0-0.5c-0.5-0.4-1.1-0.9-1.6-1.3c0.1-1.9,0.3-3.8,0.5-5.6
				c0.1-0.1,0.2-0.2,0.3-0.4c-0.1-0.7-0.1-1.9,0-3.4c-0.1-0.8-0.2-1.7-0.3-2.5c0-0.2,0-0.4,0-0.6c-0.2-1.1-0.7-2.1-1.4-3.2
				c0.3-0.6,0.7-1.2,1-1.8c0-0.2,0-0.4,0-0.6c0-0.4,0.1-0.9,0.1-1.4c0-0.5,0.1-0.9,0.1-1c0-4.1,0-8.2,0.1-12.2
				c0.2-0.4,0.5-0.8,0.7-1.1c-0.1-0.6-0.1-1.1-0.2-1.7c-0.3-0.4-0.5-0.7-0.8-1.1c0.5-0.7,1-1.5,1.5-2.2c-0.2-0.3-0.3-0.6-0.5-0.9
				c0.4-0.8,0.8-1.7,1.2-2.5c0-0.6,0-1.2-0.1-1.8c0.1-0.3,0.3-0.6,0.4-0.9c0.1-1.3,0.1-2.5,0.2-3.8c0.2-0.2,0.4-0.5,0.6-0.7
				c0.2-0.6,0.4-1.2,0.6-1.8c0.5-1.7,1.3-2.5,2.5-2.3c0.8,0.1,1.4,0.6,1.9,1.3c0.5,0.8,0.7,1.5,0.6,2.2c0,0.2,0,0.3-0.1,0.5
				c0.1,0.5,0.3,0.9,0.4,1.4c-0.3,0.7-0.6,1.5-0.9,2.2c0,0.4,0,0.7,0,1.1c0,0.2,0,0.6,0,0.9c-0.1,0.8-0.3,1.4-0.6,2
				c-0.1,0.1-0.3,0.2-0.4,0.3c0,0.8,0,1.3,0,1.5c0,0.3-0.1,0.7-0.3,1.1c0.4,0.8,0.6,2.3,0.7,4.5c-0.1,1.1-0.3,2.3-0.5,3.6
				c-0.1,0-0.3-0.2-0.6-0.6c0.2,1.1,0.3,2.1,0.5,3.2c0,0.1,0,0.2,0,0.2c0,0.6,0.3,1.6,1.1,3.2c-0.2,0.5-0.5,1-0.7,1.5
				c0.1,0.3,0.2,0.5,0.3,0.8c-0.3,0.9-0.6,1.9-0.9,2.8c0.2,0.6,0.4,1.2,0.6,1.7c-0.1,0.8-0.1,1.6-0.1,2.4c0.1,1.2,0.2,2.4,0.4,3.7
				c0.3,1,0.6,2.1,0.9,3.1c-0.1,0.3-0.3,0.6-0.4,0.8c0.3,0.5,0.5,1.1,0.8,1.6c0,0.5,0,1.1-0.1,1.6c0.2,0.1,0.3,0.3,0.5,0.4
				c0.4-0.1,0.8-0.2,1.2-0.3c0.6,0.7,1.2,1.4,1.9,2.1c0-0.3,0.1-0.6,0.1-1c0.9,0,1.8,0.1,2.7,0.1c0.4-0.4,0.8-0.8,1.2-1.2
				c0.2,0.4,0.5,0.7,0.7,1.1c1.1,0.8,1.8,1.3,2.2,1.3c0.3,0,0.5-0.2,0.6-0.7c-0.1-0.5-0.2-1-0.3-1.4c-0.1-0.4-0.1-0.8-0.1-1.2
				c0.2-1.2,0.3-2,0.5-2.6c-0.2-0.7-0.4-1.4-0.6-2.1c0.1-0.6,0.3-1.2,0.4-1.8c0-0.4,0-0.7,0.1-1.1c0-0.4,0-0.9,0.1-1.3
				c0-0.6,0.1-1.2,0.1-1.9c0-0.6,0.1-1.1,0.1-1.5c0-0.3-0.2-1-0.5-1.9c0.3-0.6,0.5-1.5,0.6-2.6c0-0.2,0-0.4,0-0.8
				c0-0.4,0.1-0.7,0.1-0.9c0-0.1,0-0.2,0-0.2c0,0.2-0.1,0.3-0.1,0.5c0-0.1,0-0.2,0-0.3c0-0.5,0.3-1.8,0.8-4.1
				c-0.1-0.2-0.1-1.4,0-3.6c0-1.2,0-2,0.1-2.3c0.1-1.1,0.3-2.2,0.5-3.2c0-0.3,0-0.7,0-1c-0.4-1.1-0.5-2.1-0.4-3
				c0.1-0.7,0.3-1.3,0.5-2c0-0.5-0.1-1.1-0.1-1.6c0.2-0.4,0.4-0.8,0.7-1.3c-0.1-1.5-0.2-3.1-0.3-4.6
				C124.3,348.8,124.6,348.8,124.9,348.9z"/>
			<path d="M158.2,284c0.5,0.2,1,0.9,1.5,2c0.4,0.5,0.8,1.1,1.2,1.6c0.6,0.4,1.1,0.7,1.7,1.1c0,0.3,0,0.6,0,0.9
				c0.2,0.1,0.3,0.3,0.5,0.4c0,1.1,0.5,2.1,1.5,3c0.6,1,1,1.9,1.1,2.9c0.2,0.4,0.3,0.8,0.4,1c0.2,0.3,0.4,0.5,0.7,0.8
				c0,0.3-0.1,0.6-0.1,0.9c0.2,0.9,0.3,1.9,0.5,2.8c-0.2,1.1-0.4,2.1-0.6,3.2c-0.1,0.2-0.3,0.5-0.4,0.7c0,0.5-0.1,1-0.1,1.5
				c-0.3,0.1-0.5,0.2-0.8,0.3c-0.7,0.7-1.3,1.1-1.8,1.4c-0.4,0.7-1.2,1-2.3,1.1c-1.5,0.6-2.7,0.8-3.4,0.6c-0.1,0-0.2-0.1-0.3-0.1
				c-0.4,0.1-0.9,0.2-1.3,0.3c-0.1,0-0.2,0.1-0.2,0.1c-0.6,0-1.2,0-1.8,0c-0.7,0.1-1.3,0.2-2,0.3c-0.7-0.3-1.4-0.6-2.1-0.9
				c-0.5,0.2-1,0.4-1.5,0.6c-2.8-0.4-5.6-0.7-8.4-1.1c-1.1-0.1-2-0.3-2.8-0.6c-0.2,0-0.4,0-0.5,0.1c-0.3,0.1-0.5,0.2-0.8,0.3
				c0.3,0.4,0.6,0.8,0.9,1.3c0.9,1.6,1.7,3.2,2.6,4.7c0.5,0.6,1.1,1.3,1.6,1.9c0.4,0.3,0.8,0.7,1.2,1c0.4,0.5,0.8,1,1.2,1.5
				c0.2,0.3,0.4,0.7,0.6,1c0.2,0,0.3,0,0.5,0c0.9,0.7,1.7,1.5,2.6,2.2c0.3,0.4,0.5,0.7,0.8,1c0,0.3,0,0.7,0,1
				c0.2,0.4,0.4,0.7,0.6,1.1c1.3,0.3,1.9,1.2,2,2.5c0,0.1,0.1,0.2,0.1,0.3c1.3,0.9,2,1.8,2.1,2.6c0.4,0.4,0.8,0.8,1.1,1.2
				c1,1.7,1.6,2.9,1.8,3.4c0.6,0.4,1.1,0.8,1.4,1.5c0.2,0.2,0.4,0.5,0.6,0.9c1,0.4,1.6,1.5,1.8,3.2c0,0.4,0.1,0.8,0.1,1.1
				c-0.3,1.3-1.2,2.2-2.8,2.7c-0.9,0.3-1.8,0.6-2.6,1c-0.7-0.4-1.5-0.7-2.2-1.1c-0.4,0-0.9,0-1.3,0c-0.1-0.1-0.1-0.2-0.2-0.2
				c-0.4-0.1-0.8-0.2-1.2-0.4c-0.8,0.2-1.7,0.4-2.5,0.6c-0.3-0.3-0.7-0.7-1-1.1c-0.4,0-0.9,0.1-1.3,0.2c-0.4-0.4-0.8-0.7-1.2-1.1
				c-0.7-0.2-1.4-0.5-2.2-0.7c-0.1,0.1-0.3,0.2-0.4,0.2c-0.4-0.3-0.8-0.6-1.2-0.9c-0.2,0-0.5,0.1-0.7,0.1c-0.5-0.1-1-0.2-1.5-0.3
				c-0.9-0.3-1.9-0.6-2.8-0.9c-0.7,0.1-1.1,0.1-1.3,0.1c-0.1,0-0.2-0.1-0.4-0.1c-0.2,0-0.3-0.1-0.4-0.1c-0.3,0.1-0.5,0.1-0.8,0.2
				c-1-0.3-2-0.6-3-1c-0.3-0.1-0.7-0.1-1-0.2c-0.5-0.1-1-0.2-1.5-0.3c-0.9-0.2-1.7-0.4-2.6-0.6c-0.8-0.8-1.7-1.7-2.5-2.5
				c0.7-2.1,1.4-3.5,2.1-4.3c0.7-0.7,1.8-0.9,3.1-0.6c0.3,0.1,0.6,0.1,0.9,0.2c0.4-0.2,0.9-0.4,1.3-0.6c0.6,0.3,1.3,0.6,1.9,0.9
				c1.3,0.2,2.6,0.3,3.9,0.5c0.6,0.4,1.1,0.8,1.7,1.2c0.7,0.1,1.4,0.1,2.1,0.2c0.5,0.1,1.1,0.3,1.6,0.4c0.3,0.4,0.6,0.8,0.9,1.2
				c0.6-0.2,1.3-0.3,1.9-0.5c0.3,0.3,0.6,0.7,0.9,1c0.3,0.1,0.7,0.2,1,0.4c0.4-0.1,0.8-0.2,1.2-0.4c0.6,0.4,1.2,0.9,1.8,1.3
				c0.3,0.2,0.5,0.3,0.8,0.5c0.3,0.1,0.6,0.1,0.9,0.2c0.4-0.1,0.7-0.2,1.1-0.3c-0.4-0.7-0.9-1.4-1.3-2.1c-1-0.2-1.5-0.7-1.7-1.5
				c-0.6-0.2-1-0.6-1.3-1.1c-0.1,0.1-0.2,0.2-0.3,0.2c-0.3-0.5-0.6-1.1-0.9-1.6c-0.1-0.1-0.2-0.3-0.3-0.4c-0.3-0.1-0.6-0.1-0.9-0.2
				c-0.3-0.6-0.5-1.3-0.8-1.9c-0.3-0.2-0.6-0.4-0.9-0.7c-0.1-0.3-0.2-0.7-0.4-1c-1.1-1.7-2.2-3.4-3.3-5.1c0.3,0.4,1.2,1.9,2.7,4.3
				c0.1,0,0.1,0,0.2,0c-0.2-0.1-0.4-0.2-0.6-0.4c-0.4-0.6-0.7-1.1-1.1-1.7c-0.5-0.4-0.9-0.9-1.4-1.3c-0.3-0.1-0.6-0.2-0.9-0.3
				c0-0.6-0.1-1.1-0.1-1.7c-0.4-0.2-0.8-0.4-1.2-0.5c-0.1-0.2-0.2-0.3-0.3-0.5c-0.2-0.1-0.3-0.2-0.5-0.2c-0.2-0.1-0.4-0.1-0.7-0.2
				c-0.3-0.6-0.7-1.2-1-1.8c-0.1,0-0.3-0.1-0.5-0.1c-0.2,0-0.3,0-0.4,0c-1.1-0.3-1.6-1.2-1.4-2.6c-1-0.9-1.4-2.1-1.3-3.4
				c-0.2-0.3-0.5-0.6-0.7-0.9c0-0.1-0.1-0.2-0.1-0.3c-0.7-0.9-1-2-0.9-3.3c-0.3-0.4-0.5-0.8-0.8-1.2c0.2-0.8,0.5-1.7,0.7-2.5
				c0.5-0.3,1.1-0.5,1.6-0.8c0.3-0.3,0.6-0.6,0.9-0.9c0.1,0,0.2,0,0.3,0c0.1-0.2,0.3-0.4,0.4-0.6c0.7,0.1,1.3,0.3,2,0.4
				c0.5-0.5,1-0.9,1.4-1.4c0.6,0.5,1.2,0.9,1.8,1.4c0.9-0.1,1.7-0.2,2.6-0.3c0.9,0.3,1.7,0.6,2.6,0.9c1.3,0.1,2.5,0.3,3.8,0.4
				c1.1,0.3,2.3,0.6,3.4,1c0.7-0.1,1.5-0.1,2.2-0.2c0.9,0.1,1.7,0.2,2.6,0.3c0.5-0.2,1.1-0.3,1.8-0.3c0.3-0.5,0.7-1,1-1.5
				c0.6,0.2,1.2,0.4,1.8,0.7c0.4-0.2,0.9-0.4,1.3-0.6c0.1,0,0.2,0.1,0.3,0.1c0.1-0.1,0.1-0.2,0.2-0.3c0.2-0.1,0.4-0.1,0.7-0.2
				c-0.1-0.2-0.2-0.4-0.3-0.5c0,0.1,0,0,0.2-0.4c0.2-0.7-0.2-1.6-1.2-2.8c0-0.4,0.1-0.8,0.1-1.2c-0.1-0.2-0.3-0.3-0.4-0.5
				c-0.4-0.4-0.7-0.9-0.7-1.5c0.1-0.2,0.2-0.4,0.3-0.6c-0.1-0.2-0.2-0.3-0.2-0.5c-0.1-0.1-0.3-0.2-0.4-0.3c-0.1-0.1-0.2-0.3-0.3-0.4
				c-0.2-0.8-0.7-1.4-1.5-1.9c-0.2-0.5-0.5-1-0.7-1.4c-0.3-0.2-0.5-0.3-0.8-0.5c-0.4-0.4-0.8-0.8-1.2-1.2c0-0.7,0-1.3,0-2
				c0.6-0.7,1.1-1.4,1.7-2.1c1,0.1,2,0.2,2.9,0.3c0.1,0,0.1,0,0.2,0C158,283.9,158.1,284,158.2,284z"/>
			<path d="M179.8,276.9c-0.1,0.2-0.2,0.4-0.3,0.6c0.7,0.4,1.4,0.8,2.1,1.2c1,0.5,2.1,1,3.1,1.5c0.2,0.1,0.4,0.2,0.6,0.3
				c0.9,0.4,1.8,0.9,2.8,1.3c0.9,0.2,1.7,0.5,2.6,0.7c0.3,0.3,0.5,0.6,0.8,0.9c0.4,0.1,0.8,0.2,1.3,0.3c0.3,0.2,1.3,0.9,3.1,1.9
				c1.8,1,3.3,2.2,4.4,3.6c1.1,0.8,2,1.9,2.5,3c-0.1,0.2-0.1,0.4-0.2,0.5c0.3,0.3,0.6,0.7,0.9,1c0.1,0.2,0.2,0.3,0.3,0.5
				c0.1,0.7,0.2,1.4,0.3,2.1c0.1,0.1,0.2,0.3,0.3,0.4c0.1,0,0.1,0.1,0.3,0.1c0.2,0.1,0.5,0.4,0.8,0.8c-0.1,0.5-0.2,0.9-0.2,1.4
				c0,0.1,0,0.2,0,0.4c0,0.2-0.1,0.3-0.1,0.4c0.1,0.5,0.2,1,0.3,1.6c-0.2,0.2-0.3,0.5-0.5,0.8c0,0.1,0.1,0.2,0.1,0.2
				c-0.1,0.3-0.2,0.6-0.3,0.9c0.1,0.4,0.2,0.8,0.3,1.2c-0.4,0.2-0.8,0.4-1.3,0.6c-0.5,0.4-1,0.8-1.5,1.2c-0.2,0.3-0.3,0.5-0.5,0.8
				c-0.2,0.1-0.5,0.2-0.7,0.3c-0.3,0.5-0.6,1-0.8,1.5c-0.4,0.1-0.7,0.3-1.1,0.4c-0.1,0.1-0.3,0.2-0.4,0.4c-0.8,0.6-1.6,1.2-2.4,1.8
				c-0.3,0.2-0.6,0.3-0.9,0.5c-0.3,0.1-0.7,0.1-1,0.2c-0.2,0.2-0.3,0.4-0.5,0.5c-0.1,0-0.3,0.1-0.4,0.1c-0.2,0.3-0.6,0.6-1.1,0.7
				c-0.1,0-0.2,0-0.3,0.1c-0.5,0.1-1.2,0.2-2,0.3c-0.5,0.3-1,0.6-1.4,1c-0.5,0.1-0.9,0.2-1.4,0.2c-0.1,0.2-0.3,0.4-0.4,0.6
				c-0.9,0-1.9,0.1-2.8,0.2c-0.6,0-1.2,0-1.7-0.2c-0.6-0.2-1.1-0.6-1.5-1.1c0.3-0.9,0.7-1.8,1-2.7c0.7-0.2,1.5-0.4,2.2-0.5
				c0.5-0.4,1.1-0.8,1.6-1.2c0.3,0,0.6,0,0.9,0c0.3-0.4,0.7-0.7,1-1.1c0.3,0.1,0.7,0.2,1,0.4c0.1-0.2,0.2-0.3,0.3-0.5
				c0.3,0,0.5,0,0.8,0c0.4-0.3,0.8-0.7,1.2-1c0.2-0.1,0.4-0.2,0.5-0.3c0.2-0.1,0.4-0.3,0.6-0.4c0.4-0.1,0.7-0.3,1.1-0.4
				c0.6-0.5,1.2-1,1.8-1.5c0.2-0.4,0.3-0.7,0.5-1.1c0.2,0.1,0.4,0.2,0.6,0.3c0.3-0.2,0.6-0.5,0.8-0.8c0-0.1,0.1-0.2,0.1-0.3
				c0.1-0.3,0.4-0.6,0.7-0.9c0.1-0.4,0.4-0.6,0.7-0.8c0.1-0.2,0.1-0.4,0.2-0.6c0.1-0.2,0.1-0.5,0.2-1c-0.3-0.9-0.5-1.5-0.5-2
				c-0.2-0.6-0.3-1.2-0.5-1.8c-0.2-0.1-0.3-0.3-0.5-0.4c-0.1-0.4-0.3-0.9-0.4-1.3c-0.2,0-0.3-0.1-0.5-0.1c-0.1-0.1-0.2-0.2-0.3-0.2
				c-0.1,0-0.1-0.1-0.2-0.1c-0.2-0.3-0.4-0.5-0.6-0.8c-0.6-0.6-1.2-1.2-1.8-1.8c-0.4,0-0.7,0-1.1,0c-1.1-0.9-2.1-1.8-3.2-2.6
				c-0.5-0.2-1.1-0.5-1.6-0.7c-0.3,0.1-0.7,0.2-1,0.3c-1-0.9-1.6-1.8-1.8-2.5c-1.3-0.1-2.6-0.4-3.8-0.8c-0.1-0.1-0.1-0.2-0.2-0.4
				c-0.1,0.1-0.2,0.1-0.3,0.2c-0.2-0.1-0.3-0.1-0.5-0.2c-0.8-0.3-1.6-1-2.5-1.8c-0.7-0.1-1.4-0.2-2.1-0.3c-0.3-0.3-0.7-0.6-1-0.9
				c-0.8,0-1.7,0-2.5,0c-0.1-0.4-0.2-0.8-0.3-1.1c-0.2,0-0.3,0.1-0.5,0.1c-1.5-0.7-3.1-1.4-4.6-2.1c-0.6,0-1.3-0.1-1.9-0.4
				c-0.7-0.3-1.3-0.7-1.9-1.3c-0.1,0-0.2-0.1-0.3-0.1c-0.9-0.5-1.8-1.1-2.6-1.6c-1.2-0.1-2.4-0.2-3.6-0.3c-0.4-0.4-0.8-0.7-1.3-1.1
				c-0.8-0.2-1.7-0.4-2.5-0.6c-0.2-0.2-0.3-0.4-0.5-0.6c-1.5-0.4-3.1-0.8-4.6-1.2c-1.5-0.7-2.9-1.3-4.4-2c-0.4,0-0.8,0-1.2,0
				c-0.2-0.1-0.4-0.3-0.6-0.4c-0.5,0-1.1,0-1.6,0c-0.2-0.4-0.3-0.9-0.5-1.3c-0.2-0.3-0.3-0.6-0.4-1c-1.5-1.3-2-2.6-1.5-3.9
				c0.5-1.1,1.4-1.7,2.8-1.6c0.6-1.4,1.7-1.9,3.1-1.3c0.7,0.3,1.5,0.5,2.2,0.8c0.2,0.3,0.5,0.7,0.7,1c0.4,0.2,0.8,0.4,1.2,0.5
				c0.1,0,0.2,0.1,0.3,0.1c0.4,0.1,0.7,0.1,1.1,0.2c0.6,0.6,1.2,1.2,1.8,1.8c0.6,0,1.1,0.1,1.7,0.1c0.8,0.6,1.6,1.2,2.4,1.8
				c1.3,0.4,2.5,0.8,3.8,1.1c0.3,0.4,0.6,0.7,0.9,1.1c0.9,0,1.5,0.1,1.8,0.2c0.5,0.3,1,0.7,1.3,1.2c1,0.4,2.8,0.9,5.4,1.5
				c0.4,0.2,0.8,0.4,1.2,0.6c0.9,0.6,1.9,1.2,2.8,1.7c1.2,0.1,2.4,0.4,3.5,1c0.5,0.3,1.2,0.6,2,1.1
				C177.9,276.3,178.9,276.6,179.8,276.9z M119.2,245.4c0.1,0.8,0.1,1.7,0.2,2.5c0.2,0.3,0.4,0.6,0.6,0.9c0,0.3-0.1,0.6-0.1,0.9
				c0.5,0.6,0.8,1.6,0.9,2.9c0.5,1.1,1.1,2.2,1.6,3.3c0,0.5,0,0.9,0.1,1.4c0.4,0.4,0.8,0.7,1.1,1.1c0,0.1-0.1,0.2-0.1,0.3
				c0.9,1.2,1.6,3.4,2,6.3c-1.5,0.1-3-0.1-4.4-0.8c-0.8-0.3-1.6-0.8-2.4-1.4c-0.4-0.5-0.7-1.1-1.1-1.6c-0.4-0.5-0.8-0.9-1.3-1.4
				c-0.2-0.7-0.4-1.4-0.6-2.2c-0.5-0.5-0.9-1-1.4-1.6c-0.3-0.4-0.6-0.7-0.9-1.1c-0.6-0.3-1.2-0.5-1.8-0.8c0.1-0.8,0.2-1.6,0.2-2.4
				c-0.4-0.4-0.9-0.8-1.3-1.2c0.1-0.3,0.2-0.5,0.3-0.8c0.1-0.3,0.3-0.6,0.4-0.9c0.4-0.9,0.7-1.7,1-2.3c0.1-0.3,0.3-0.7,0.4-1
				c0.2,0.1,0.4,0.2,0.6,0.3c0.2-0.1,0.4-0.2,0.6-0.3c0.5-0.9,1.2-1.4,2.2-1.4C117.1,244.6,118.1,245,119.2,245.4z"/>
			<path d="M179.4,225.3c0.4,0.5,0.8,1,1.2,1.4c1.4,0.9,2.5,1.8,3.2,2.5c0.2,0.3,0.4,0.7,0.5,1c0.3,0.2,0.6,0.4,0.9,0.6
				c0.1,0.3,0.2,0.5,0.3,0.8c0.3,0.3,0.7,0.7,1,1c0.1,0.5,0.3,1,0.4,1.4c0.6,0.6,1.2,1.3,1.7,1.9c0,0.3-0.1,0.5-0.1,0.8
				c0.2,0.3,0.5,0.6,0.7,0.9c0,0.4,0,0.9,0,1.3c0.4,0.5,0.7,1,1.1,1.5c0,0.4,0,0.8,0,1.2c0.3,0.2,0.6,0.5,1,0.7
				c-0.1,0.6-0.2,1.2-0.3,1.8c0.6,1.3,0.8,2.5,0.5,3.6c0,0.1-0.1,0.2-0.1,0.3c0.8,1.4,0.8,2.7,0.2,3.9c0.1,0.7-0.1,1.4-0.5,2.1
				c0.1,0.4,0.1,0.7,0.2,1.1c-0.1,0.3-0.1,0.6-0.2,0.9c0.1,0.5,0.2,1,0.3,1.5c-0.2,0.3-0.4,0.7-0.5,1c-0.1,0.4-0.2,0.8-0.3,1.2
				c-0.4,0.3-0.9,0.7-1.3,1c-0.7,1.1-1.3,2.1-2,3.2c-0.9,0-1.7,0.1-2.6,0.1c-1,0.2-1.9,0.5-2.9,0.7c-0.4-0.4-0.8-0.8-1.2-1.1
				c-1.2-0.1-2.4-0.2-3.6-0.3c-0.3-0.3-0.6-0.7-0.9-1c-0.7-0.3-1.5-0.6-2.2-0.8c-0.4-0.3-0.8-0.6-1.2-0.9c-0.8-0.4-1.4-0.7-1.7-0.9
				c-1.1-0.6-1.8-1.3-2-2.2c-0.6-0.4-1.3-1.2-2.3-2.7c0.1-0.1,0.1-0.3,0.2-0.4c-0.2,0-0.5-0.1-0.7-0.1c-0.4-0.3-0.7-0.6-1.1-0.9
				c-0.4-0.2-0.9-0.5-1.3-0.7c-0.3-0.7-0.5-1.2-0.7-1.3c-0.5-0.1-0.9-0.3-1.4-0.4c-0.1-0.1-0.2-0.1-0.3-0.2c-0.6-0.8-1.3-1.5-2.2-2
				c-0.5-1.1-1.1-2.1-1.6-3.2c-0.1-0.4-0.1-0.7-0.2-0.9c-0.1,0-0.3-0.1-0.4-0.1c0.1-0.1,0.1-0.2,0.2-0.3c-0.3-0.7-0.5-1.4-0.8-2.1
				c-0.6-0.4-1.3-0.8-1.9-1.2c0.1-0.9,0.2-1.7,0.4-2.6c-0.1-1.1-0.7-2.1-1.7-3c0.2-0.4,0.4-0.7,0.6-1.1c0-0.8,0.2-1.5,0.4-2
				c0.3-0.5,0.7-0.9,1.2-1.3c0.2-0.3,0.4-0.6,0.6-0.9c0.1-0.9,0.3-1.8,0.4-2.8c0.6-0.2,1.2-0.4,1.8-0.5c0.4-0.2,0.8-0.4,1.1-0.6
				c0.1-0.2,0.3-0.5,0.4-0.7c0.5-0.3,0.9-0.6,1.4-0.8c0.1-0.2,0.3-0.4,0.4-0.7c1.1-0.3,2.5-0.6,4.3-0.8c0.2,0,0.3,0.1,0.5,0.1
				c0.2-0.1,0.5-0.2,0.7-0.4c1.1-0.1,2.2-0.2,3.3-0.3c1.6,0.3,3.2,0.7,4.8,1c0.3,0.2,0.6,0.4,0.8,0.5
				C177.2,224.5,178.3,224.9,179.4,225.3z M178.2,231.8c-0.2-0.1-0.3-0.1-0.5-0.2c-0.6,0.1-1.2,0.1-1.6-0.1
				c-0.1-0.2-0.2-0.3-0.3-0.5c-0.7-0.1-1.3-0.2-2-0.3c-0.5-0.4-1-0.8-1.5-1.2c-0.2,0-0.4,0-0.6,0.1c-1,0.4-1.7,0.5-2,0.3
				c-0.5,0.4-1.2,0.2-2.1-0.3c-0.1,0.1-0.2,0.3-0.4,0.4c-0.8,0-1.5,0-2.3,0c-0.3,0.1-0.7,0.3-1,0.4c-0.6,0.4-1.1,0.9-1.7,1.4
				c-0.2,0.2-0.4,0.4-0.6,0.6c-0.2,0.3-0.4,0.5-0.7,0.5c0.3,0.9,0.6,1.9,0.9,2.8c0.6,0.8,1.2,1.7,1.8,2.5c0,0.8,0,1.6,0,2.3
				c0.3,0.3,0.5,0.5,0.8,0.8c0,0.4,0,0.7,0,1.1c0.7,0.5,1.4,1.1,2,1.6c0,0.4,0,0.9,0,1.3c0.7,0.7,1.4,1.2,2,1.6
				c0.2,0.7,0.4,1.4,0.6,2.1c0.2-0.1,0.3-0.2,0.5-0.3c0.7,0.4,1.1,1,1.4,1.8c0.4,0.5,0.9,1,1.3,1.7c0.2,0.1,0.5,0.3,0.7,0.4
				c0.1,0.1,0.2,0.1,0.3,0.2c0.3,0.2,0.7,0.4,1,0.6c0.6,0.7,1.2,1.4,1.9,2.2c0.2,0,0.3,0,0.5,0.1c0.8,0.4,1.6,0.9,2.4,1.3
				c0.3,0.3,0.7,0.7,1,1c0.4,0.2,0.8,0.4,1.2,0.6c0.5,0,1-0.1,1.5-0.1c0.3-0.3,0.7-0.6,1-0.9c0.1-0.1,0.2-0.2,0.4-0.3
				c0.1-0.2,0.2-0.4,0.3-0.6c0.4-0.7,0.7-1.4,1.1-2c-0.2-0.3-0.5-0.5-0.7-0.8c0.1-0.1,0.1-0.2,0.2-0.3c0.2-0.3,0.3-0.4,0.5-0.4
				c0-0.3,0.1-0.6,0.1-0.9c0.2-0.2,0.4-0.3,0.6-0.5c-0.1-0.5-0.1-1-0.2-1.5c-0.1-0.1-0.1-0.2-0.2-0.3c0.1-0.3,0.1-0.5,0.2-0.8
				c-0.4-0.7-0.6-2-0.4-3.7c-0.1-0.1-0.2-0.3-0.3-0.4c-0.1-0.8-0.2-1.5-0.3-2.3c-0.3-0.6-0.6-1.1-0.9-1.7c0-0.6,0-1.1,0.1-1.7
				c-0.1-0.1-0.2-0.2-0.4-0.3c-0.2-0.3-0.5-0.7-0.7-1c-0.4-0.2-0.7-0.5-1.1-0.7c-0.1-0.5-0.2-1-0.3-1.5c-0.1-0.2-0.3-0.5-0.4-0.7
				c-0.1-0.2-0.2-0.5-0.3-0.7c-0.8-0.2-1.3-0.4-1.6-0.6c-0.5-0.3-0.9-0.8-1.3-1.5C178.3,232.1,178.2,232,178.2,231.8z"/>
			<path d="M215.8,185.3c0.4,0.6,0.9,1.3,1.4,2.1c0.2,0.1,0.3,0.2,0.5,0.3c1,0.7,2,1.4,2.9,2.1c0.8,1,1.6,1.9,2.4,2.9
				c0.4,0.4,0.9,0.8,1.3,1.2c0.3,0.3,0.6,0.7,0.8,1c1.1,0.9,2.2,1.9,3.3,2.8c0.1,0.2,0.3,0.4,0.4,0.6c0.7,0.6,1.4,1.3,2.1,1.9
				c0.6,0.5,1.1,1,1.7,1.5c0.3,0.2,0.6,0.4,0.8,0.6c1.5,1.4,3,2.9,4.5,4.3c0.5,0.3,1.1,0.6,1.6,0.9c0.1,0.3,0.2,0.5,0.4,0.8
				c0.4,0.4,0.8,0.8,1.2,1.1c0.1,0.1,0.2,0.3,0.3,0.4c0.4,0.3,0.9,0.7,1.3,1c0.1,0.4,0.2,0.7,0.3,1.1c0.2,0.2,0.3,0.3,0.5,0.5
				c0.1,0.3,0.3,0.6,0.4,0.8c0.7,0.9,1.5,2.4,2.4,4.5c0.5,0.7,1,1.4,1.5,2.1c-0.1,0.5-0.1,0.8-0.1,1c0,0.1,0,0.3,0.1,0.4
				c0.1,0.4,0.3,0.9,0.4,1.3c0.2,0.5,0.4,1,0.6,1.5c-0.1,0.5-0.1,1-0.2,1.5c0.7,1.4,0.9,2.5,0.5,3.2c0.1,0.4,0.1,0.7,0.1,0.8
				c0,0.1,0.1,0.2,0.1,0.4c-0.1,0.4-0.2,0.8-0.2,1.2c0.1,0.3,0.2,0.6,0.2,1c-0.2,0.2-0.3,0.4-0.5,0.6c0.1,0.3,0.2,0.5,0.4,0.8
				c-0.4,0.3-0.8,0.5-1.2,0.8c0.1,0.7,0.1,1.3,0.2,2c-0.4,0.2-0.9,0.4-1.3,0.7c-0.4,0.8-0.7,1.5-1.1,2.3c-0.1,0.1-0.2,0.3-0.3,0.4
				c-0.1,0.1-0.2,0.2-0.2,0.3c-0.7,0.5-1.3,1-2,1.6c-0.2,0.3-0.4,0.6-0.7,0.9c-0.2,0-0.5,0-0.7,0c-0.9,0.5-1.9,1.1-2.8,1.6
				c-0.6,0.6-1.3,1.2-1.9,1.8c-0.3-0.1-0.6-0.2-0.9-0.2c-0.3,0.3-0.6,0.7-1,1c-0.5-0.2-1.1-0.4-1.6-0.6c-0.3,0.2-0.5,0.4-0.8,0.6
				c-0.5-0.1-1-0.2-1.6-0.4c-0.5,0.3-0.9,0.5-1.4,0.8c-0.9-0.1-1.7-0.2-2.6-0.3c-0.9,0.3-1.8,0.6-2.7,0.9c-0.5-0.4-1-0.8-1.5-1.2
				c-0.1,0.1-1.3-0.5-3.6-1.6c-0.9-0.6-1.8-1.5-2.9-2.7c-0.2-0.2-0.5-0.3-0.7-0.5c0-0.3,0-0.6,0-1c-0.4-0.5-0.7-0.9-1.1-1.4
				c0.1-0.1,0.2-0.1,0.3-0.2c-0.3-0.5-0.6-1.1-0.8-1.6c-0.1-0.7-0.2-1.3-0.2-2c0.1-0.4,0.2-0.8,0.4-1.2c-0.1-1-0.3-2-0.4-3
				c0.4-0.6,0.8-1.2,1.3-1.7c-0.2-0.8,0-1.6,0.5-2.3c1.3-0.6,2.4-0.6,3.3,0.1c0.5,0.4,0.9,1,1.1,1.8c0,0.4-0.1,0.9-0.1,1.3
				c0,0.5,0.1,1.1,0.2,1.6c-0.1,0.4-0.3,0.8-0.4,1.2c0.3,0.5,0.6,1.1,0.9,1.6c-0.2,0.3-0.5,0.7-0.7,1c0.2,0.3,0.3,0.7,0.5,1
				c0.1,0.5,0.2,1,0.3,1.5c0.4,0.3,0.8,0.5,1.2,0.8c0.3,0.4,0.5,0.9,0.8,1.3c0.3,0.1,0.7,0.2,1,0.3c0.5,0.2,1.1,0.3,1.6,0.5
				c0.7-0.2,1.4-0.4,2.1-0.6c0.5,0.2,0.9,0.4,1.4,0.6c1-0.2,1.9-0.3,2.9-0.5c0.3-0.3,0.5-0.6,0.8-0.9c0.6-0.1,1.3-0.2,1.9-0.3
				c0.3-0.4,0.6-0.7,0.8-1.1c0.4,0,0.8-0.1,1.2-0.1c0.2-0.3,0.4-0.6,0.6-0.8c0.3,0,0.6,0,0.9-0.1c0.7-1,1.4-2,2.1-3
				c0.2-0.8,0.5-1.6,0.7-2.5c0.3-0.4,0.7-0.7,1-1.1c0-0.7,0.1-1.3,0.1-2c0.1-0.4,0.3-0.8,0.4-1c0-0.1,0-0.3,0-0.7
				c-0.1-0.3-0.2-0.5-0.4-0.8c0.2-0.1,0.5-0.3,0.7-0.4c0-0.2-0.1-0.3-0.1-0.5c-0.2-0.2-0.4-0.3-0.6-0.5c-0.3-0.3-0.3-0.8-0.1-1.4
				c-0.4-0.6-0.5-1.3-0.4-2.1c-0.1-0.3-0.6-0.9-1.4-1.7c0-0.5,0.1-0.9,0.1-1.4c-0.1-0.2-0.2-0.4-0.4-0.6c-0.2-0.5-0.5-1-0.8-1.6
				c-0.1-0.1-0.1-0.2-0.2-0.3c-0.9-0.9-1.8-1.8-2.7-2.7c0-0.1,0-0.3,0-0.4c-0.4-0.3-0.8-0.7-1.2-1c-0.5-0.2-1-0.4-1.4-0.6
				c-0.2-0.4-0.4-0.8-0.6-1.1c-1-0.9-1.7-1.5-2-1.8c-0.4-0.4-1-0.8-1.5-1.3c-0.6-0.5-0.9-0.8-1-0.9c-1.3-1.1-2.5-2.2-3.8-3.3
				c-0.5-0.1-0.9-0.3-1.4-0.4c-0.4-0.6-0.8-1.2-1.2-1.8c-0.5-0.4-1-0.9-1.5-1.3c-1.3-1.1-2.5-2.2-3.8-3.3c-0.4-0.2-0.8-0.4-1.3-0.5
				c-0.1-0.3-0.2-0.5-0.2-0.8c-0.3-0.3-0.6-0.6-1-0.9c-0.3-0.3-0.6-0.5-0.7-0.6c-0.7-0.3-1.5-0.6-2.2-1c-0.9-0.8-1.7-1.5-2.6-2.3
				c0.2,0.6,0.5,1.3,0.7,1.9c0,0.5,0,0.9,0,1.4c0.1,0.5,0.1,1.1,0.2,1.6c-0.1,0.2-0.2,0.5-0.2,0.7c0.2,0.3,0.5,0.6,0.7,1
				c0,0.3-0.1,0.6-0.1,0.9c0.1,0.1,0.1,0.2,0.2,0.2c0,0.6,0.1,1.1,0.1,1.7c0.2,0.9,0.4,1.8,0.7,2.7c0.2,1.2,0.4,2.4,0.6,3.6
				c-0.1,0.3-0.2,0.6-0.3,0.9c0.1,0.2,0.2,0.3,0.2,0.5c0,1.1,0,2.3,0.1,3.4c-0.2,0.2-0.3,0.4-0.5,0.6c0.1,0.4,0.2,0.9,0.2,1.3
				c0.2,0.3,0.4,0.6,0.6,0.9c-0.2,0.6-0.4,1.3-0.6,1.9c0.1,0.2,0.2,0.5,0.3,0.7c-0.2,0.4-0.4,0.8-0.6,1.1c0,0.8,0,1.5,0,2.3
				c-0.2,0.5-0.4,0.9-0.6,1.4c0,0.3,0,0.6,0.1,0.9c-0.1,0.3-0.3,0.6-0.4,0.9c0,0.1,0,0.2,0,0.3c0.3,1.2,0,2.4-0.9,3.6
				c-1,1.4-2.3,2.1-3.8,2.2c-1.2-0.1-2.5-0.2-3.7-0.3c-0.5-0.4-1-0.7-1.5-1.1c-1.2-0.4-2.4-0.8-3.5-1.1c-0.8-0.6-1.6-1.1-2.4-1.7
				c-0.4-0.1-0.8-0.3-1.2-0.4c-0.2-0.3-0.3-0.7-0.5-1c-0.7-0.3-1.4-0.6-2-0.9c0-0.3,0-0.6-0.1-0.9c-0.3-0.2-0.5-0.4-0.8-0.6
				c-0.2-0.4-0.4-0.8-0.6-1.2c-0.6-0.3-1.3-0.6-1.9-0.9c-0.1-0.3-0.3-0.5-0.4-0.8c-0.2-0.1-0.4-0.3-0.6-0.4
				c-1.1-0.8-2.3-1.9-3.6-3.3c-0.8-0.4-1.6-0.9-2.3-1.3c-0.6-0.6-1.2-1.1-1.8-1.7c-1.1-0.5-2.2-1-3.3-1.5c-0.2-0.1-0.4-0.3-0.6-0.4
				c-0.2,0-0.5,0-0.7,0c-0.6-0.9-1.3-1.9-1.9-2.8c-0.7-0.8-1.5-1.5-2.4-2.2c0.1-0.9,0.4-1.6,0.9-2.3c0.3-0.5,0.7-0.9,1.2-1.2
				c0.7,0.1,1.4,0.3,2.1,0.5c0.6-0.2,1.3-0.4,1.9-0.6c0.7,0.8,1.2,1.3,1.6,1.8c0.6,0.1,1.1,0.1,1.7,0.2c0.2,0.3,0.4,0.6,0.6,0.9
				c0.5-0.1,1.1-0.2,1.6-0.3c0.4,0.7,0.7,1.5,1.1,2.2c0.8,0.4,1.6,0.7,2.4,1.1c0.2,0.4,0.3,0.8,0.5,1.2c0.1,0,0.1,0,0.2,0.1
				c1,1,2.1,2,3.1,3c1,0.8,2.1,1.5,3.1,2.3c0.1,0.3,0.1,0.5,0.2,0.8c0.9,0.8,1.7,1.6,2.6,2.4c0.1,0.4,0.3,0.9,0.4,1.3
				c0.3,0.2,0.6,0.4,1.1,0.7c0.4,0.3,0.6,0.5,0.8,0.6c0.6,0.2,1.2,0.4,1.8,0.6c0.2,0.4,0.5,0.8,0.7,1.2c0.5,0.3,0.9,0.5,1.4,0.8
				c0.1,0.1,0.1,0.2,0.2,0.4c0.3,0.2,0.7,0.4,1,0.6c0.4-0.1,0.7-0.1,1.1-0.2c0.1-0.2,0.1-0.4,0.2-0.6c0.2,0.1,0.4,0.2,0.5,0.3
				c-0.1-0.4-0.3-0.7-0.4-1.1c0.5-0.7,1-1.4,1.5-2c-0.1-0.5-0.1-1.1,0-1.6c0-1.7,0.2-3,0.7-3.9c-0.3-0.3-0.6-0.6-1-0.9
				c0.2-1.9,0.5-4.3,0.8-7.3c-0.1-0.3-0.3-0.5-0.4-0.8c0,0.2,0,0.4-0.1,0.5c0-0.2,0-0.7,0.1-1.5c-0.3-0.4-0.5-0.7-0.8-1.1
				c-0.1-0.4-0.3-0.8-0.4-1.2c0.1-0.4,0.3-0.9,0.4-1.3c-0.2-0.4-0.3-0.9-0.5-1.3c0.1-0.1,0.2-0.2,0.4-0.3c0-0.2,0-0.4,0-0.7
				c-0.1-0.5-0.2-1.1-0.3-1.6c0.1-0.1,0.1-0.3,0.2-0.4c-0.1-0.1-0.1-0.2-0.2-0.3c-0.1-0.8-0.2-1.6-0.4-2.5c-0.2-0.6-0.5-1.3-0.7-1.9
				c0.3-0.6,0.3-1.4,0.1-2.2c-0.4-1-0.9-1.9-1.3-2.9c-0.8-0.7-1.5-1.3-2.3-2c0-0.3,0.1-0.5,0.1-0.8c-0.1-0.1-0.2-0.1-0.2-0.2
				c-0.6-0.2-1.2-0.5-1.8-0.7c-0.1-0.1-0.1-0.3-0.2-0.4c-0.8-0.1-1.4-0.4-1.7-0.6c-0.5-0.5-1-1.3-1.3-2.6c0.1,0.1,0.2,0.1,0.2,0.2
				c-0.2-0.3-0.3-0.6-0.5-0.9c-0.1-0.1-0.2-0.2-0.2-0.3c0.1,0.1,0.1,0.1,0.2,0.2c-0.7-1.3-0.3-2.7,1-4.2c1.4-0.1,2.9-0.1,4.3-0.2
				c0.7,0.5,1.4,1,2.1,1.5c0.6,0.2,1.2,0.3,1.9,0.5c0.3,0.5,0.5,1,0.8,1.5c0.2,0.2,0.3,0.3,0.5,0.5c0.1,0.1,0.2,0.2,0.4,0.3
				c0.1,0.2,0.3,0.4,0.5,0.7c0.2,0.1,0.4,0.2,0.6,0.3c0.4,0.4,0.8,0.7,1.2,1.1c0.4,0.4,0.7,0.8,1.1,1.2c0.6,0.4,1.1,0.9,1.7,1.3
				c0.4,0.4,0.8,0.7,1.2,1.1c0.2,0.2,0.3,0.3,0.5,0.5c0.5,0.4,0.9,0.8,1.4,1.3C214.3,184.5,215.1,184.9,215.8,185.3z"/>
			<path d="M252,131.4c0.4,0.5,0.2,1.2-0.3,2.3c0,0.4-0.2,0.9-0.6,1.5c-0.4,0.8-0.7,1.4-0.9,1.8c-0.7,0.2-1.3,0.4-2,0.6
				c-0.3,1.2-1,2.2-2.2,3.2c-0.4,0.1-0.7,0.3-1.1,0.4c-0.1,0.3-0.1,0.7-0.2,1c-0.6,0.5-1.3,1-1.9,1.5c-0.2,0.6-0.3,1.2-0.5,1.9
				c-0.7,0.2-1.3,0.5-1.7,0.9c-0.1,0.2-0.3,0.6-0.7,1.1c-0.2,0.2-0.6,0.3-1,0.4c0.7,1,1.5,2,2.2,3c0.6,0.7,1.2,1.4,1.8,2.1
				c0.7,0.9,1.5,1.8,2.2,2.6c0.8,0.9,1.6,1.9,2.5,2.8c0.5,0.4,0.9,0.8,1.4,1.2c0.3,0.4,0.6,0.7,0.9,1.1c0.9,0.5,1.9,1,2.8,1.5
				c0,0.3,0.1,0.5,0.3,0.7c0.3,0.4,1,0.2,2.2-0.3c0.3,0.3,0.6,0.5,0.9,0.8c0.2,0,0.4-0.1,0.7-0.1c0.4,0,0.9,0,1.3,0
				c0.3,0,0.6,0,0.9,0.1c0.4-0.4,0.6-0.7,0.8-0.9c0.4-0.3,0.9-0.5,1.4-0.7c0.1-0.2,0.2-0.9,0.3-1.9c0.1-0.7,0.3-1.2,0.7-1.5
				c0,0,0.1-0.1,0.2-0.2c0.1-0.1,0.2-0.1,0.2-0.1c-0.3-1.2-0.1-2.4,0.7-3.5c1-0.7,2-0.9,3.2-0.7c0.1,0.2,0.3,0.4,0.4,0.5
				c1.4,1.8,1.7,3.3,0.9,4.6c0.4,1.4,0.1,2.7-0.9,4c0,0.5-0.1,1-0.1,1.5c-0.3,0.2-0.6,0.4-0.8,0.6c-0.4,0.5-0.8,1.1-1.1,1.6
				c-0.3,0.4-0.7,0.8-1.4,1.3c-0.3,0.3-0.8,0.5-1.4,0.6c-0.3,0.2-0.6,0.4-0.8,0.7c-1.2,0.1-2.3,0.2-3.5,0.4
				c-0.3,0.1-0.5,0.2-0.8,0.2c-1-0.3-2.1-0.7-3.1-1c-0.5-0.1-1.1-0.2-1.6-0.3c-1.6-0.9-3.1-1.7-4.7-2.5c-1.2-1-2.4-2-3.6-3
				c-0.2-0.4-0.4-0.7-0.6-1.1c-0.4-0.1-0.9-0.2-1.3-0.3c-0.2-0.4-0.4-0.9-0.6-1.3c-0.6-0.5-1.2-0.9-1.8-1.3c0-0.3,0-0.6,0-0.9
				c-0.2-0.4-0.5-0.7-0.7-1.1c-0.3-0.2-0.7-0.5-1-0.7c-0.3-0.5-0.6-1-1-1.5c-0.5-0.3-0.9-0.6-1.4-0.9c0-0.2,0-0.4,0-0.7
				c-0.3-0.4-0.7-0.8-1-1.2c-0.2,0.1-0.5,0.1-0.7,0.2c-0.4,0.5-0.7,0.9-1.1,1.4c-0.7,0.1-1.3,0.1-2,0.2c-0.1,0.1-0.1,0.1-0.2,0.2
				c-1.4,1.2-2.8,1-4.2-0.6c-0.1-0.1-0.1-0.1-0.2-0.2c-0.7-0.2-1.4-0.4-2.1-0.7c0-0.8,0.1-1.7,0.1-2.5c0.7-0.4,1.3-0.8,2-1.2
				c0.3-0.3,0.5-0.6,0.8-0.9c0.6-0.3,1.1-0.5,1.7-0.8c0.5-0.4,1-0.8,1.5-1.2c-0.4-0.5-0.9-1-1.3-1.5c-0.9-0.4-1.8-0.9-2.7-1.3
				c0.2-0.4,0.3-0.9,0.5-1.3c-0.4-0.3-0.9-0.5-1.3-0.8c-0.6-0.8-1.3-1.6-1.9-2.4c-0.5-0.2-1-0.3-1.4-0.5c-0.8-0.3-1.4-0.6-1.8-1.1
				c-0.5-0.5-0.7-1.1-0.8-1.6c-0.2-0.4-0.5-0.8-0.7-1.2c0-0.4,0.1-0.7,0.1-1.1c1.1-1.4,1.9-2.2,2.4-2.6c1.6-1.3,3.1-1.3,4.5,0.1
				c0,0.2,0.1,0.4,0.1,0.6c0.7,0.2,1.2,0.5,1.5,0.9c0,0.1,0.1,0.2,0.2,0.4c0.1,0.2,0.2,0.4,0.2,0.6c0.1,0.2,0.2,0.4,0.4,0.6
				c0.4,0.3,0.7,0.5,1.1,0.8c0.1,0.1,0.2,0.3,0.2,0.4c0.3,0.3,0.7,0.6,1,0.9c0,0.5,0.1,1,0.1,1.4c0.5,0.4,1.1,0.8,1.6,1.2
				c0.4,0.7,0.8,1.4,1.2,2.1c0.4,0.1,0.8,0.1,1.2,0.2c0.2,0.6,0.4,1.2,0.6,1.8c0.6-0.7,1.3-1.5,1.9-2.2c1.4-0.9,2.9-1.8,4.3-2.7
				c0.9-1,1.9-2,2.8-3c0.4-0.2,0.8-0.5,1.2-0.7c0.1-0.1,0.2-0.2,0.3-0.4c1-0.7,1.9-1.4,2.9-2.1C249.9,130.2,251.1,130.3,252,131.4z"
				/>
			<path d="M305.3,138.9c1.3,2.3,0.9,4-1.1,5.1c-1,0.5-2,0.5-3.1-0.2c-1-0.5-2.3-1.8-3.9-3.8c-0.2-0.4-0.5-0.8-0.7-1.2
				c0-0.4-0.1-0.7-0.2-1c-0.1-0.1-0.2-0.2-0.3-0.4c-0.7-0.4-1.4-0.8-2.1-1.2c-0.1-0.7-0.1-1.4-0.2-2.1c-0.5-0.5-1-1-1.4-1.6
				c-0.1-0.4-0.2-0.8-0.2-1.2c-0.2-0.4-0.4-0.7-0.7-1.1c-0.2-0.3-0.4-0.7-0.6-1c-0.4-0.5-0.8-0.9-1.1-1.4c-0.1-0.3-0.2-0.6-0.2-0.9
				c-0.6-0.9-1.1-1.9-1.7-2.8c-0.7-1.2-1.5-2.4-2.2-3.6c-0.7-0.9-1.4-1.7-2.1-2.6c-0.1-0.4-0.1-0.8-0.2-1.2
				c-0.6-0.6-1.2-1.2-1.8-1.8c-0.1,0.3-0.2,0.6-0.3,1c-0.4,0.6-0.9,1.2-1.3,1.7c-0.1,1.5-0.3,3-0.4,4.5c-0.3,0.2-0.7,0.3-1,0.5
				c0,1.1,0.1,2.2,0.1,3.2c0.1,0.4,0.3,0.8,0.4,1.1c-0.2,0.3-0.4,0.6-0.6,0.9c0,0.6,0,1.3,0,1.9c0.1,0.4,0.1,0.8,0.2,1.2
				c0.5,1.1,1,2.2,1.4,3.2c-0.1,0.9-0.2,1.8-0.3,2.7c0.1,0.4,0.3,0.9,0.4,1.3c-0.1,0.4-0.2,0.8-0.4,1.2c0.3,0.7,0.7,1.4,1,2.2
				c-0.2,0.8-0.4,1.6-0.6,2.4c0.6,1.1,1.2,2.1,1.8,3.2c-0.2,0.1-0.4,0.3-0.6,0.4c0,0.2,0.1,0.4,0.1,0.6c0.2,1.1,0.3,2.2,0.5,3.3
				c-0.1,0.7-0.1,1.5-0.2,2.2c0,0.8,0.1,1.5,0.1,2.3c-0.5,0.1-0.9,0.2-1.4,0.3c-0.3,0.2-0.6,0.4-0.9,0.6c-0.6-0.2-1.2-0.5-1.7-0.7
				c-0.9-0.8-1.9-1.6-2.8-2.4c-1-1.4-2-2.8-3.1-4.2c-0.4-0.4-0.8-0.8-1.2-1.2c-0.3-0.6-0.6-1.2-1-1.7c-0.9-1.3-1.8-2.5-2.7-3.8
				c0.1-0.2,0.2-0.3,0.4-0.5c-1.2-1.9-2.4-3.8-3.7-5.7c-0.2-0.4-0.4-0.8-0.6-1.1c-0.4-0.6-0.8-1.1-1.2-1.7c0.1-0.2,0.1-0.3,0.2-0.5
				c-0.5-0.9-1-1.8-1.6-2.8c-0.1-0.4-0.2-0.7-0.3-1.1c-0.4-0.3-0.7-0.6-1.1-0.9c0-0.2,0-0.4-0.1-0.6c-0.1,0-0.2-0.1-0.3-0.1
				c-0.5-0.8-0.9-1.6-1.4-2.4c-0.3,0-0.7-0.1-1-0.1c-0.1-0.5-0.2-1-0.3-1.5c-0.6-0.8-1.1-1.5-1.7-2.3c-0.8-0.6-1.6-1.2-2.5-1.8
				c0-0.4,0-0.7,0-1.1c-0.7-0.6-1.4-1.2-2.1-1.8c-0.3-0.4-0.6-0.9-0.9-1.3c-0.2-0.1-0.4-0.3-0.6-0.4c-0.7-0.8-1.5-1.5-2.2-2.3
				c-0.4-0.3-0.9-0.6-1.3-0.9c-1-0.5-1.9-1-2.9-1.5c0-0.6,0-1.1,0.1-1.7c-0.1-0.6-0.1-1.3-0.2-1.9c0.2-0.2,0.5-0.3,0.7-0.5
				c1.2-0.8,2.4-1,3.6-0.5c0.6,0,1.2,0.1,1.8,0.1c0.5,0.4,1,0.8,1.5,1.1c0.7,0.1,1.3,0.2,2,0.3c0.2,0.4,0.3,0.9,0.5,1.3
				c0.6,0.4,1.2,0.9,1.8,1.3c0,0.1,0.1,0.1,0.1,0.2c0,0.1,0.1,0.1,0.1,0.2c0.6,0.9,1.2,1.8,1.8,2.7c0.8,1.2,1.7,2.4,2.5,3.5
				c0.7,0.6,1.4,1.3,2.1,1.9c0.1,0.4,0.2,0.8,0.3,1.2c0.4,0.4,0.7,0.9,1.1,1.3c0.1,0.5,0.3,0.9,0.4,1.4c0.5,0.6,1,1.2,1.6,1.8
				c0.3,0.6,0.6,1.2,0.9,1.8c0.1,0.1,0.1,0.2,0.2,0.3c1.1,1.7,2.3,3.3,3.4,5c0.3,0.4,0.5,0.8,0.8,1.1c0,0.3,0,0.6-0.1,0.9
				c0.5,0.9,1.1,1.9,1.6,2.8c0.2,0.5,0.4,0.9,0.6,1.4c0.6,0.6,1.3,1.3,1.9,2c0,0.3,0.1,0.6,0.1,0.9c0.4,0.5,0.7,1.1,1.1,1.6
				c0.4-0.5,0.5-1,0.1-1.5c0-0.3,0.1-0.7,0.1-1c-0.1-0.5-0.1-0.9-0.2-1.4c-0.3-0.5-0.6-1.1-0.9-1.6c0-0.6-0.1-1.2-0.1-1.8
				c-0.2-0.6-0.4-1.3-0.7-1.9c0.1-0.7,0.1-1.3,0.2-2c-0.3-0.6-0.5-1.1-0.8-1.7c0.2-0.2,0.4-0.4,0.6-0.5c-0.2-0.2-0.3-0.5-0.5-0.7
				c-0.2-0.3-0.4-0.7-0.6-1c0.2-0.4,0.5-0.8,0.7-1.2c-0.1-0.2-0.3-0.4-0.4-0.7c0.2-0.2,0.4-0.4,0.7-0.6c-0.2-0.5-0.5-0.9-0.7-1.4
				c-0.2-0.2-0.3-0.4-0.5-0.6c0.3-0.5,0.6-1,1-1.5c0-0.2,0.1-0.4,0.1-0.6c-0.2-0.2-0.5-0.5-0.7-0.7c0.2-0.2,0.4-0.5,0.6-0.7
				c-0.1-0.6-0.2-1.2-0.4-1.7c0.3-0.2,0.6-0.4,0.9-0.6c0.2-0.4,0.3-0.7,0.5-1.1c-0.2-0.4-0.4-0.7-0.4-0.9c0.2-0.3,0.4-0.6,0.6-0.9
				c0.4-1.4,1-2.4,1.8-3.1c0-0.1-0.1-0.1-0.1-0.2c0.9-1.5,1.7-2.4,2.2-2.7c0.8-0.5,1.8-0.5,2.9,0c0.7-0.1,1.4,0.1,1.9,0.6
				c0.3,0,0.7,0.1,1,0.1c0.3,0.4,0.6,0.7,0.9,1.1c0.7,0.5,1.5,0.9,2.2,1.4c1.3,2.3,2.6,4.5,4,6.8c0.6,1,1.2,2,1.7,3
				c0.3,0.2,0.6,0.4,0.8,0.6c1.2,2.1,2.4,4.2,3.6,6.3c0.1,0.4,0.2,0.9,0.3,1.3c0.3,0.6,0.7,1.1,1,1.7c0.5,0.6,1,1.1,1.5,1.7
				c0.2,0.6,0.4,1.2,0.6,1.8c0.7,0.7,1.2,1.4,1.6,1.9c0.5,0.2,0.9,0.3,1.4,0.5c0.1,0.2,0.3,0.5,0.4,0.7c0.1,0,0.3,0.1,0.4,0.1
				C304.6,137.9,305.1,138.5,305.3,138.9z"/>
			<path d="M334.1,117.9c0.3,0.7,0.2,1.8-0.2,3.2c0.2,1.1,0.1,2-0.1,2.8c-0.1,0.1-0.3,0.2-0.4,0.3c0,0.7-0.1,1.4-0.1,2
				c-0.4,0.3-0.8,0.6-1.2,0.8c-0.3,0.6-0.6,1.1-1,1.7c0,0.6,0,1.3,0,1.9c-0.3,0.1-0.5,0.2-0.8,0.4c-0.4,0.5-0.8,0.8-1.1,1
				c0,0.3-0.1,0.6-0.1,0.9c-0.1,0.1-0.4,0.2-0.7,0.3c-0.6,0.3-1,1.1-1.1,2.3c-0.5-0.2-1-0.4-1.6-0.6c-0.2,0.1-0.5,0.2-0.9,0.4
				c-0.6,0.3-1.2,0.4-1.8,0.3c-0.4,0.2-0.8,0.4-1.2,0.6c-0.3-0.1-0.5-0.1-0.8-0.2c-2,0.5-3.6,0.3-4.8-0.8c0-0.1-0.1-0.2-0.1-0.3
				c-0.4,0-0.8-0.1-1.2-0.1c-0.4-0.4-0.8-0.8-1.2-1.2c-0.4-0.1-0.8-0.2-1.3-0.2c-0.2-0.4-0.5-0.9-0.7-1.3c-1-1.1-1.9-2.2-2.9-3.3
				c-0.6-1-1.1-2.1-1.7-3.1c-0.1-0.5-0.2-1.1-0.3-1.6c-0.3-0.6-0.6-1.2-1-1.8c-0.1-0.5-0.2-1-0.3-1.6c-0.1-0.2-0.3-0.4-0.4-0.6
				c0-0.4,0-0.9,0-1.3c0,0.1,0,0.2-0.1,0.2c-0.3-0.5-0.4-1.1-0.5-1.8c-0.1-0.1-0.2-0.3-0.2-0.4c-0.5-0.7-0.9-1.3-1.4-2
				c-0.5-1-0.6-2-0.2-3.2c0-0.1-0.1-0.3-0.2-0.6c-0.1-0.2-0.5-0.7-1-1.3c-0.6-0.6-0.9-1.1-1.1-1.4c-0.4-0.7-0.6-1.5-0.7-2.4
				c0.8,0.5,1.6,0.5,2.4,0.1c0.1,0,0.2-0.1,0.3-0.1c0-0.3,0.1-0.7,0.3-1.1c-0.3-1.7-0.3-3.2-0.1-4.5c0.1-0.2,0.1-0.3,0.2-0.5
				c-0.1-0.2-0.3-1-0.5-2.2c0.2-0.1,0.5-0.2,0.7-0.3c0-0.2,0-0.3,0-0.5c0.2-0.2,0.4-0.3,0.6-0.5c0-0.6,0.1-1,0.1-1.1
				c0-0.1,0.5-0.8,1.3-1.9c0-0.5,0.2-1,0.5-1.6c0.2-0.2,0.4-0.5,0.7-0.7c0-0.2,0.1-0.5,0.1-0.7c1.3-1.2,2.1-1.9,2.5-2.1
				c0.5-0.2,1-0.3,1.5-0.2c0.1-0.1,0.3-0.2,0.4-0.3c0.3,0,0.5,0.1,0.8,0.1c0.9,0.2,1.8,0.4,2.7,0.5c0.7,0.2,1.3,0.4,2,0.6
				c0.1,0.1,0.1,0.2,0.2,0.4c1.8,0.5,3.1,1.8,4,3.8c0.1,0.3,0.1,0.7,0.2,1c0.5,1,1,1.9,1.6,2.9c-0.2,0.3-0.3,0.6-0.5,0.8
				c0.1,0.9,0.1,1.8,0.2,2.7c-0.2,0.8-0.5,1.7-0.7,2.5c0.2,0.5,0.4,1,0.6,1.5c-1.1,2.1-2.2,3.9-3.3,5.3c-0.1,1-0.6,1.8-1.7,2.2
				c-0.1,0-0.2,0.1-0.2,0.1c-0.3,0.6-0.7,1.2-1,1.7c-0.4,0.2-0.8,0.4-1.3,0.6c-0.5,0.6-1,1.2-1.4,1.7c-0.6,0-1.2-0.1-1.8-0.1
				c-0.1,0-0.1,0.1-0.2,0.1c0.1,0.5,0.4,1.3,0.8,2.3c-0.1,0.3-0.2,0.5-0.3,0.8c0.2,0.4,0.3,0.7,0.5,1.1c0.1,0.6,0.2,1.1,0.3,1.7
				c0.8,1.4,1.4,2.2,1.6,2.6c0,0.1-0.1,0.3-0.1,0.4c0.4,0.8,0.6,1.3,0.8,1.7c0,0.1,0.1,0.2,0.1,0.3c0.1,0.1,0.1,0.2,0.1,0.3
				c0.2,0.5,0.6,0.8,1.2,0.9c0.5,0.6,1,1,1.4,1c0.3,0.1,0.5,0.2,0.8,0.3c0.6-0.1,1.3-0.2,1.9-0.2c0,0.1,0.1,0.2,0.1,0.3
				c0.2,0,0.5-0.1,0.7-0.1c0.9-0.4,1.7-0.8,2.6-1.2c0.5-0.3,0.9-0.6,1.4-0.9c0.2-0.3,0.3-0.6,0.5-0.9c0.1-0.1,0.2-0.2,0.4-0.4
				c0-0.5,0.1-1.1,0.1-1.6c0.1-0.1,0.2-0.2,0.3-0.3c0.5-0.5,1.1-1,1.6-1.5c0-0.5,0.2-1,0.5-1.5c0-0.2,0-0.4,0-0.5
				c0.9-0.7,1.3-1.5,1-2.6c0.4-1.1,1.1-1.9,2.3-2.4c0.1,0,0.2-0.1,0.3-0.1C332.7,116.2,333.7,117.1,334.1,117.9z M314.5,95.5
				c-0.1-0.2-0.3-0.5-0.7-1c-0.2,0-0.3,0.1-0.5,0.1c0,0.1-0.1,0.1-0.1,0.2c-0.1,0-0.2,0.1-0.3,0.1c-0.1,0.1-0.2,0.2-0.3,0.2
				c-0.1,0-0.2,0-0.3,0c-0.1,0-0.2,0.1-0.2,0.1c-0.2,0.3-0.4,0.7-0.5,1c-0.2,0.1-0.5,0.3-0.7,0.4c-0.1,0.1-0.2,0.2-0.3,0.4
				c-0.2,0.9-0.3,1.7-0.5,2.6c-0.2,0.4-0.4,0.7-0.6,1.1c0,1-0.1,2-0.1,3.1c-0.2,0.3-0.3,0.6-0.5,0.9c0.3,1.1,0.4,2.1,0.1,3.1
				c0,0.3,0,0.5,0,0.8c0.4-0.7,1-1.2,1.7-1.5c0.1-0.2,0.3-0.3,0.4-0.5c0-0.3-0.1-0.6-0.1-0.9c0.4-0.1,0.8-0.3,1.2-0.4
				c0-0.5,0.1-0.9,0.1-1.4c0.2-0.1,0.3-0.1,0.5-0.2c0.4,0,0.7,0,1.1,0c-0.1-0.5-0.2-1-0.2-1.5c0.2-0.1,0.4-0.2,0.6-0.2
				c-0.2-0.3-0.3-0.6-0.5-1c0.3-0.2,0.6-0.5,1-0.7c0-0.1,0.1-0.3,0.1-0.4c-0.1-0.3-0.1-0.6-0.2-0.9c0.1-0.7,0.2-1.4,0.3-2.2
				C314.8,96.2,314.7,95.9,314.5,95.5z"/>
			<path d="M389.5,94.9c-0.1,1-0.2,2-0.4,3.1c0.4,0.6,0.7,1.2,1.1,1.8c-0.1,0.2-0.1,0.4-0.2,0.6c0,0.5,0,1.1,0,1.6
				c-0.1,0.5-0.2,1-0.3,1.5c-0.1,0.1-0.2,0.2-0.3,0.3c0.1,0.6,0.2,1.2,0.3,1.8c-0.5,0.2-1,0.3-1.4,0.5c-0.6,1-1.2,1.8-1.9,2.5
				c-0.2,0-0.3,0-0.5,0c-0.4,0.2-0.7,0.5-1.1,0.7c-0.2,0.1-0.5,0.2-0.7,0.3c-0.5,0.3-0.9,0.7-1.4,1c-0.7-0.2-1.3-0.4-2-0.5
				c-0.1,0-0.2-0.1-0.3-0.1c-0.4,0.1-0.9,0.3-1.3,0.4c0.1,0,0.2,0.1,0.4,0.1c-0.8,0.1-1.6,0.1-2.4,0.2c-0.6,0.4-1.2,0.7-1.8,1.1
				c-0.3-0.2-0.7-0.4-1-0.6c-0.5,0.2-1.1,0.4-1.6,0.6c-0.3-0.1-0.5-0.3-0.8-0.4c0,0-0.3,0.1-0.6,0.3c0.1,0.2,0.1,0.4,0.2,0.6
				c0.2,0.6,0.3,1.1,0.3,1.8c0.3,0.6,0.5,1.1,0.8,1.7c-0.1,0.4-0.1,0.7-0.2,1.1c0.4,1.4,0.7,2.4,0.9,3.1c0.2,0.8,0.3,1.6,0.5,2.4
				c0.4,1.2,0.9,2.3,1.3,3.5c-0.1,0.4-0.2,0.7-0.3,1.1c0.2,0.4,0.5,0.9,0.7,1.3c0,0.3,0,0.7,0.1,1c0.2,0.1,0.4,0.1,0.5,0.2
				c0.1,0.5,0.3,0.9,0.4,1.4c0.1,0.4,0.2,0.7,0.3,0.8c0.2,0.6,0.1,1.1-0.3,1.6c0.2,0.4,0.5,0.8,0.7,1.2c-0.1,0.3-0.2,0.6-0.3,0.9
				c0.4,1.2,0.8,2.5,1.1,3.7c1.2,4.4,1.1,6.8-0.2,7.1c-0.3,0.1-1.2,0.1-2.7,0c-0.2-1-0.4-2-0.6-2.9c-0.6-1.3-1.3-2.7-1.9-4
				c0.1-0.6,0.1-1.3,0.2-1.9c-0.2-0.7-0.4-1.4-0.7-2.1c-0.4-0.9-0.8-1.8-1.3-2.7c0.1-0.4,0.2-0.8,0.4-1.2c-0.4-0.7-0.8-1.3-1.2-2
				c0-0.4,0-0.8,0-1.2c-0.3-0.6-0.6-1.2-1-1.7c0-0.6,0-1.2,0-1.8c-0.2-0.3-0.5-0.6-0.9-0.9c-0.4-0.2-0.6-0.4-0.6-0.5
				c-0.1-0.2,0-0.4,0.2-0.7c-0.1-0.2-0.2-0.5-0.3-0.9c-0.3-0.8-0.4-1.9-0.5-3.3c-0.3-0.3-0.5-0.5-0.8-0.8c-0.1-0.4-0.1-0.8-0.2-1.3
				c-0.3-0.2-0.6-0.4-0.9-0.7c0.2-0.4,0.3-0.8,0.5-1.2c-0.4-0.9-0.8-1.7-1.3-2.6c-0.2-1.3-0.4-2.7-0.7-4c-0.3-0.3-0.6-0.7-1-1
				c0.1-0.7,0.2-1.3,0.3-2c-0.4-0.3-0.8-0.5-1.2-0.8c0-0.6-0.1-1.3-0.1-1.9c-0.2-0.1-0.4-0.2-0.6-0.3c-0.1-0.5-0.2-1.1-0.3-1.6
				c-0.1-0.7-0.2-1.4-0.3-2.1c0-0.1-0.1-0.2-0.1-0.4c0-0.1,0-0.3,0-0.4c-0.1-0.3-0.2-0.7-0.3-1c0-0.1,0-0.3,0-0.4
				c-0.3-0.5-0.6-0.9-0.9-1.4c0-0.6,0-1.1-0.1-1.7c-0.3-0.4-0.6-0.7-0.8-1.1c0-0.5-0.1-1-0.1-1.5c-0.2-0.1-0.3-0.2-0.5-0.3
				c-0.1-0.6-0.2-1.3-0.3-1.9c-0.2-0.3-0.4-0.6-0.6-0.9c0-0.3-0.1-0.7-0.1-1c-0.2-0.2-0.3-0.4-0.5-0.6c-0.9,0.8-1.8,1.6-2.6,2.4
				c-0.1-0.2-0.1-0.4-0.2-0.6c-0.2,0.1-0.4,0.2-0.6,0.3c-0.2,0.4-0.4,0.8-0.6,1.2c-0.3,0.1-0.5,0.2-0.8,0.2
				c-0.2,0.6-0.4,1.2-0.5,1.8c-0.3,0-0.7-0.1-1-0.1c0,0.4-0.1,0.7-0.1,1.1c-3.4-0.9-5.4-1.8-5.8-2.9c-0.3-0.7-0.2-1.4,0.2-2.1
				c-0.2-0.5-0.4-0.9-0.6-1.4c1.3-1.5,2.6-2.5,4.1-3c0.1-0.3,0.3-0.6,0.4-0.8c0.8-0.7,1.6-1.4,2.4-2.1c0.1-0.3,0.3-0.6,0.4-0.8
				c0.8-0.2,1.7-0.4,2.5-0.5c0.1-0.1,0.3-0.2,0.4-0.3c-0.1-1.2-0.2-2.3-0.2-3.5c0.8-0.1,1.5-0.1,2.3-0.1c0.7,0.7,1.5,1.3,2.2,2
				c0.2-0.4,0.4-0.7,0.6-1.1c0.7,0.3,1.3,0.5,2,0.8c0.8-0.2,1.6-0.3,2.4-0.1c0.2,0.2,0.5,0.5,0.7,0.7c0.2-0.1,0.4-0.3,0.5-0.4
				c0.3,0.1,0.6,0.3,0.9,0.4c0.4-0.1,0.8-0.2,1-0.2c0,0.2,0,0.4,0.1,0.6c0.6-0.4,1.2-0.8,1.8-1.2c0.4,0.3,0.9,0.6,1.3,0.9
				c0.6,0,1.2,0.1,1.9,0.1c0.5,0.4,1,0.8,1.6,1.2c0.8,0.3,1.7,0.6,2.5,0.9c0,0.1,0.1,0.1,0.1,0.2c0.6,0.1,1.2,0.1,1.8,0.2
				c0,0.2,0.1,0.4,0.1,0.6c0.6,0.3,1,0.7,1.4,1.3c0.3,0.1,0.6,0.2,0.8,0.3c0.3,0.3,0.5,0.6,0.8,0.9c0.4-0.1,0.7-0.2,1.1-0.2
				c0.2,0.6,0.3,1.3,0.5,1.9c0.3,0.2,0.5,0.4,0.8,0.5c0.1,0.2,0.2,0.4,0.3,0.6c0.3,0,0.6,0,0.9,0c0.5,1.4,1.1,2.6,2,3.5
				c0.1,0.2,0.1,0.4,0.2,0.7c0.4,0.3,0.7,0.5,1.1,0.8c0.1,0.5,0.1,1,0.2,1.6c0.4,0.5,0.7,1,1.1,1.6c0.2,0.6,0.5,1.3,0.7,1.9
				C389.1,94.8,389.3,94.8,389.5,94.9z M383.5,97.6c-0.1-0.2-0.1-0.3-0.2-0.5c0-0.1,0-0.3,0-0.4c-0.3-0.5-0.6-1.1-0.9-1.6
				c0-0.3,0.1-0.6,0.1-0.9c-0.2-0.2-0.3-0.5-0.5-0.7c-0.1-0.3-0.2-0.6-0.3-0.9c-0.4-0.5-0.7-0.9-1.1-1.4c-0.2-0.3-0.4-0.6-0.6-1
				c-0.6-0.7-1.3-1.4-1.9-2.2c-0.4-0.2-0.9-0.5-1.3-0.7c-0.3-0.5-0.7-1-1-1.5c-0.3-0.1-0.6-0.1-0.9-0.2c-0.6-0.5-1.3-1.1-1.9-1.6
				c-0.4,0.2-0.9,0.4-1.3,0.5c-0.5-0.4-1-0.8-1.5-1.2c-0.3,0.1-0.5,0.3-0.8,0.4c-0.3-0.4-0.6-0.7-1-1.1c-0.1,0-0.2,0-0.4,0
				c-0.4,0.1-0.8,0.2-1.2,0.3c-0.3,0.2-0.5,0.5-0.8,0.7c-0.3-0.2-0.6-0.4-0.9-0.6c-0.3,0.1-0.5,0.3-0.8,0.4
				c-0.2-0.2-0.4-0.4-0.6-0.6c-0.5,0-1.1,0.1-1.6,0.1c0.1,0.4,0.2,0.7,0.3,1.1c0.2,0.6,0.4,1.2,0.5,1.8c0.2,0.3,0.4,0.6,0.6,0.9
				c0.5,0.3,1,0.6,1.5,0.9c-0.1,0.8-0.2,1.7-0.3,2.5c0.2,0.5,0.3,0.9,0.5,1.4c0.1,1,0.2,2,0.3,3c0.5,1.1,1.2,2,2.1,2.7
				c0,0.4,0,0.7,0,1.1c0.1,0,0.1,0.1,0.1,0.2c0.1,0.2-0.1,0.5-0.4,1c0.3,0.2,0.6,0.5,0.8,0.7c0,0.4-0.1,0.8-0.1,1.2
				c0.1,0.4,0.1,0.8,0.2,1.3c0.2,0.4,0.4,0.8,0.6,1.2c0.1,0.4,0.2,0.8,0.3,1.2c0.6-0.2,1.1-0.3,1.7-0.5c0.2-0.2,0.5-0.3,0.8-0.4
				c0.5-0.1,1-0.1,1.5,0.2c0.1,0,0.2-0.1,0.3-0.2c0.1,0,0.2,0,0.3-0.1c0.2,0,0.5-0.1,1,0c0.3-0.3,0.5-0.4,0.8-0.5
				c0.4-0.1,0.9-0.1,1.3,0.1c0.2-0.1,0.5-0.1,0.7-0.2c0.2,0,0.5,0,0.7,0c0.5-0.3,1-0.6,1.5-1c0.5,0.2,1,0.4,1.6,0.6
				c0.5,0.1,0.8,0.1,0.7,0.1c0.4-0.7,0.7-1.4,1.1-2.1c-0.1-0.5-0.1-0.9-0.2-1.4c0.1-0.1,0.2-0.2,0.4-0.3c-0.1-0.2-0.3-0.5-0.4-0.7
				c0.1-0.3,0.3-0.6,0.4-0.9C383.4,98.1,383.5,97.9,383.5,97.6z"/>
			<path d="M425.5,81.1c-0.1,0.6-0.2,1.2-0.3,1.8c0.2,1.7,0.2,3,0.2,4c-0.1,0.3-0.3,0.7-0.4,1c0,0.4,0.1,0.7,0.1,1.1
				c-0.1,0.2-0.2,0.5-0.4,0.7c0,0.5-0.1,0.9-0.1,1.4c-0.3,0.4-0.5,0.8-0.8,1.2c-0.1,0.8-0.2,1.7-0.3,2.5c-0.2,0.1-0.4,0.2-0.6,0.4
				c-0.1,0.4-0.1,0.7-0.2,1.1c-0.3,0.3-0.6,0.5-0.9,0.8c-0.2,0.6-0.3,1.1-0.5,1.7c-0.3,0.2-0.6,0.5-0.9,0.7c0,0.4,0,0.8,0.1,1.2
				c-0.5,0.3-1,0.6-1.5,0.9c-0.6,1.2-1.3,2.1-2.3,2.6c-0.1,0-0.2,0.1-0.3,0.1c-0.6,1.4-1.5,2.3-2.7,2.4c-0.5,0.5-1.1,0.7-1.8,0.8
				c-0.2,0.3-0.5,0.5-0.7,0.8c-0.3,0.1-0.5,0.3-0.8,0.4c-0.3,0.4-0.6,0.7-0.9,1.1c-0.3,0.1-0.7,0.1-1,0.2c-0.4,0.2-0.7,0.3-1.1,0.5
				c-0.5-0.2-1-0.3-1.5-0.4c-1.2,0.1-2.3,0.2-3.5,0.3c-0.5-0.7-1.1-1.3-1.6-2c-0.7-0.6-1.5-1.3-2.2-1.9c0-0.5,0.1-1.1,0.1-1.6
				c-0.6-1-1.3-2-1.9-3c0.1-0.4,0.1-0.9,0.2-1.3c-0.2-0.7-0.5-1.5-0.7-2.2c0-0.5,0-1,0-1.5c-0.2-0.9-0.3-1.5-0.4-1.9
				c-0.2-1.2-0.2-2.2,0.3-2.8c-0.1-0.6,0.1-1.8,0.5-3.4c0.1,0,0.3-0.1,0.4-0.1c-0.1-0.2-0.3-0.4-0.4-0.6c0-0.5,0-0.9,0-1.4
				c-0.1-0.5-0.2-1-0.3-1.4c0.4-0.7,0.6-1.1,0.6-1.3c-0.2-0.4-0.4-0.9-0.5-1.3c0-0.1-0.1-0.3-0.1-0.4c0.2-1,0.3-1.9,0.1-2.9
				c0.4-1,0.9-2.1,1.3-3.1c0.2-0.3,0.4-0.5,0.5-0.7c-0.1-0.1-0.1-0.2-0.2-0.4c0.1,0,0.2,0,0.4-0.1c0.4-0.6,0.7-1.2,1.1-1.9
				c-0.1-0.7-0.2-1.5-0.3-2.2c0.7-0.4,1.4-0.8,2.1-1.2c0.7-0.7,1.1-1.8,1.2-3.1c0.4-0.1,0.8-0.1,1.2-0.2c0.6-0.5,1.2-0.8,1.8-0.8
				c0.6-0.1,1.1,0,1.6,0.2c0.3,0,0.7,0,1,0c0.8-0.4,1.5-0.9,2.3-1.3c0.5,0.4,1,0.7,1.5,1.1c0.4,0.2,0.7,0.4,1.1,0.5
				c0.2,0,0.5-0.1,0.7-0.1c0.5,0.2,1,0.4,1.5,0.6c0.2,0,0.5-0.1,0.7-0.1c0.9,0.7,2,1.6,3.2,2.9c0.1,0.2,0.2,0.3,0.2,0.5
				c0.2,0.1,0.4,0.2,0.7,0.3c0.7,0.8,1.5,1.6,2.2,2.4c0.7,1.5,1.5,2.9,2.2,4.4c0,0.3,0.1,0.6,0.1,1C424.7,78.9,425.1,80,425.5,81.1z
				 M420,84c0-0.2-0.1-0.3-0.1-0.5c-0.5-0.4-0.8-0.9-0.9-1.4c0.1-0.2,0.1-0.3,0.2-0.5c-0.3-0.6-0.7-1.2-1-1.7c0-0.6,0-1.2-0.1-1.9
				c-0.1-0.1-0.3-0.3-0.4-0.4c-0.9-0.6-1.4-1-1.5-1.4c-0.6-0.2-0.9-0.8-1.1-1.8c-0.2,0-0.4,0-0.6,0c-0.4-0.6-0.9-1.2-1.4-1.8
				c-0.3-0.2-0.6-0.4-0.9-0.6c-0.7-0.2-1.3-0.4-2-0.5c-0.3,0-0.5-0.1-0.8-0.1c-0.4,0-0.6,0-0.8-0.3c-0.5,0.8-1,1.6-1.5,2.3
				c-0.2,0.9-0.5,1.9-0.7,2.8c-0.6,0.4-1.1,0.9-1.7,1.3c0,0.4-0.1,0.7-0.1,1.1c-0.3,0.2-0.5,0.4-0.8,0.6c0,0.8,0,1.7,0.1,2.5
				c-0.3,0.2-0.6,0.5-0.9,0.7c-0.1,0.9-0.1,1.8,0.1,2.5c-0.4,0.6-0.8,1.1-1.1,1.7c0.2,0.1,0.3,0.1,0.5,0.2c0.1,0.8,0,1.5-0.5,2.1
				c-0.1,0.6-0.2,1.3-0.4,2c0,0.3,0.1,0.5,0.1,0.8c0,0.1,0,0.3,0.1,0.4c0.1,0.4,0.1,0.8,0.2,1.1c-0.2,0.9-0.3,1.8-0.4,2.7
				c0.1,0.1,0.2,0.3,0.3,0.4c0.2,0.9,0.3,1.8,0.5,2.7c0,0.5-0.1,0.9-0.1,1.4c0.1,0.4,0.2,0.9,0.3,1.3c0.3,0.4,0.6,0.7,1,1.1
				c0.4,0.1,0.8,0.2,1.2,0.3c0.1,0,0.3,0.1,0.4,0.1c0.2,0,0.4-0.1,0.6-0.1c0.7-0.1,1.4-0.2,2.1-0.3c0.1-0.3,0.1-0.7,0.2-1
				c0.1,0,0.2,0,0.3,0c0.3,0,0.5,0,0.6,0.2c0.2-0.1,0.5-0.3,0.7-0.4c0.2,0.1,0.5,0.1,0.7,0.2c0.3-0.3,0.6-0.7,0.9-1
				c0-0.1,0.1-0.2,0.1-0.3c0.2-0.1,0.5-0.2,0.7-0.3c0.3-0.8,1.1-1.6,2.4-2.5c0-0.2,0.1-0.3,0.1-0.5c0.5-0.5,1-1.1,1.5-1.6
				c0.2-0.6,0.5-1.1,0.7-1.7c0.4-0.3,0.8-0.6,1.2-0.9c0-0.2,0-0.3,0-0.5c0.1-0.4,0.2-0.7,0.3-1.1c-0.1-0.4-0.1-0.8-0.2-1.3
				c0.3-0.4,0.6-0.7,0.9-1.1c0.1-0.2,0.2-0.5,0.3-0.7c0.1-0.2,0.2-0.4,0.4-0.6c-0.3-0.7-0.5-1.3-0.6-1.6c-0.1-0.6,0-1.2,0.3-1.9
				C419.8,84.2,419.9,84.1,420,84z"/>
			<path d="M489.5,63.8c-0.2,0.6-0.4,1.2-0.6,1.8c0,0.3,0.1,0.7,0.1,1c-0.5,1.2-0.9,2.5-1.4,3.7c-0.1,0.5-0.2,0.9-0.3,1.4
				c-0.5,0.5-0.9,0.9-1.4,1.4c-0.2,0.6-0.4,1.2-0.6,1.8c-0.4,0.5-0.7,1-1.1,1.5c-0.6,1.1-1.1,2.2-1.7,3.3c-0.6,1-1.2,2-1.9,3
				c-0.9,1.3-1.9,2.7-2.8,4c-0.2,0.4-0.3,0.8-0.5,1.2c-0.5,0.9-0.9,1.7-1.4,2.6c-0.5,1.1-1.1,2.2-1.6,3.3c-0.9,1.7-1.8,3.4-2.7,5.2
				c-0.2,0.8-0.4,1.5-0.6,2.3c-0.5,0.7-0.9,1.5-1.4,2.2c-0.8-0.3-1.6-0.7-2.4-1c-0.5-0.3-0.9-0.7-1.4-1c-0.4-1.5-0.8-3.1-1.3-4.6
				c-0.5-1.1-1.1-2.2-1.6-3.3c0-0.3,0-0.6,0-1c-0.3-0.9-0.7-1.8-1-2.7c-0.1-0.2-0.3-0.4-0.4-0.6c-1.2-2.9-2.4-5.7-3.7-8.5
				c-0.4-0.7-0.8-1.4-1.2-2c-0.3,0.6-0.6,1.1-0.9,1.7c-0.5,0.4-0.9,0.9-1.4,1.3c-0.7,1-1.3,2.1-1.9,3.1c-0.4,0.6-0.9,1.1-1.3,1.7
				c-0.2,0.8-0.5,1.7-0.7,2.5c-0.6,0.9-1.2,1.8-1.8,2.7c0,0.3-0.1,0.6-0.1,0.9c-0.4,1-0.8,2-1.1,3.1c0,0.5,0,1,0.1,1.5
				c-0.3,0.5-0.5,0.9-0.8,1.4c0,0.5,0,0.9,0,1.4c-0.3,0.1-0.6,0.2-0.8,0.3c-0.6,0.8-1.1,1.5-1.7,2.3c0.1-0.1,0.2-0.1,0.3-0.2
				c-0.5,0.4-1.3,0.7-2.2,0.9c-0.2-0.2-0.4-0.5-0.6-0.7c-0.4-0.2-0.8-0.3-1.3-0.5c0-0.4,0-0.7-0.1-1.1c-0.2-0.2-0.4-0.5-0.6-0.7
				c-0.2-0.9-0.5-1.7-0.7-2.6c-0.3-0.6-0.5-1.1-0.8-1.7c0-0.4-0.1-0.8-0.1-1.3c0-0.1-0.1-0.3-0.1-0.4c-0.5-1.4-1.1-2.7-1.6-4.1
				c-0.2-0.9-0.4-1.7-0.5-2.6c-0.3-0.3-0.6-0.7-0.9-1c0-0.4,0-0.8,0.1-1.3c-0.4-0.8-0.7-1.5-1.1-2.3c0-0.3,0-0.6-0.1-0.9
				c-0.3-0.7-0.6-1.4-0.9-2.1c-0.5-0.6-0.9-1.2-1.4-1.7c0-0.7,0-1.4,0-2.1c-0.1-0.2-0.1-0.4-0.2-0.7c-0.4-0.8-0.8-1.6-1.2-2.4
				c-0.1-0.5-0.2-1-0.3-1.5c-0.2-0.3-0.4-0.6-0.6-0.9c-0.4-0.6-0.8-1.2-1-1.9c-0.7-1.3-1.3-2.7-2-4c0.4-0.6,0.8-1.2,1.1-1.9
				c0.3-0.7,1-1.3,2.2-1.5c0.6-0.1,1.3-0.3,1.9-0.4c0.2,0.3,0.5,0.6,0.7,0.9c0.4,0.2,0.8,0.3,1.3,0.5c0.3,0.6,0.6,1.1,1,1.7
				c0.3,0.2,0.5,0.4,0.8,0.6c-0.1,0.5-0.1,1-0.2,1.6c0.1,0.3,0.3,0.6,0.4,0.9c-0.1,0.3-0.1,0.6-0.2,0.9c0.3,0.5,0.7,1,1,1.5
				c0,0.5,0,1-0.1,1.5c0.5,1.4,1,2.9,1.5,4.3c0,0.4-0.1,0.7-0.1,1.1c0.2,0.9,0.4,1.7,0.6,2.6c0.5,1,1,2,1.5,3
				c0.3,1.2,0.5,2.4,0.8,3.6c0.3,0.4,0.6,0.7,1,1.1c0,0.8,0.1,1.5,0.1,2.3c0.2,0.7,0.5,1.3,0.7,2c0,0.3,0.1,0.5,0.1,0.8
				c0.4-0.3,0.8-0.6,1.1-0.9c0.6-1.2,1.2-2.5,1.8-3.7c0.2-0.6,0.4-1.1,0.5-1.7c0.2-0.5,0.4-0.9,0.6-1.4c0-0.6,0.1-1.1,0.3-1.5
				c0.2,0,0.4,0,0.5,0c0.1-0.6,0.1-1.2,0.2-1.8c0.3-0.1,0.6-0.2,1-0.2c0.1-0.5,0.4-0.9,0.7-1.2c0-0.1,0-0.1,0-0.2
				c0-0.4,0.2-0.8,0.5-1.2c-0.1-0.2-0.1-0.4-0.2-0.7c0.1-0.1,0.3-0.1,0.4-0.2c0-0.2-0.1-0.4-0.1-0.6c0.5-1.1,1.1-1.8,1.7-2.4
				c0-0.6,0-1.3-0.1-1.9c0.4-0.3,0.8-0.5,1.2-0.8c0.1-0.1,0.2-0.2,0.4-0.3c0.1-0.1,0.1-0.1,0.2-0.2c-0.3-0.6-0.5-1.4-0.5-2.1
				c0-1.2,0.4-2.3,1.4-3.4c0.5-0.3,1.2-0.4,2-0.4c0.5,0,0.9,0,1.1,0.1c0.6,0.5,1.2,1.1,1.8,1.6c0.3,0.5,0.6,1,0.9,1.5
				c0.2,0.8,0.4,1.6,0.6,2.3c0.3,0.5,0.5,1,0.8,1.6c-0.1,0.4-0.1,0.7-0.2,1.1c0.2,0.7,0.4,1.4,0.6,2.1c0,0.3,0,0.6,0,0.9
				c0.5,1,1,1.9,1.5,2.9c0,0.1,0,0.2,0,0.3c0.1,0.1,0.2,0.2,0.3,0.3c0.6,1.6,1.1,3.1,1.7,4.7c0,0.4,0,0.8,0.1,1.3
				c0.3,0.4,0.6,0.7,0.8,1.1c0.6,1.7,1.3,3.4,1.9,5.1c0.2-0.3,0.3-0.6,0.5-0.8c0.5-1.2,1.1-2.4,1.6-3.6c0.3-0.3,0.7-0.6,1-0.8
				c0.2-0.7,0.5-1.4,0.7-2.1c0.3-0.2,0.6-0.3,0.9-0.5c0-0.5,0-1,0.1-1.5c0.4-0.3,0.8-0.6,1.4-0.9c0.4-0.2,0.5-0.3,0.5-0.5
				c0-0.7,0-1.4,0-2c0.4-0.4,0.7-0.8,1.1-1.1c0.1-0.1,0.3-0.2,0.4-0.3c0.5-0.8,1-1.6,1.5-2.4c0-0.1,0-0.2,0.1-0.3
				c0.1-0.7,0.6-1.5,1.3-2.4c0-0.4-0.1-0.7-0.1-1.1c0.6-0.7,1.2-1.4,1.8-2c0.3-0.7,0.6-1.4,0.9-2.1c-0.5-2-0.8-3.6-0.7-5
				c0.1-2,1.2-3.1,3.2-3.2c0.8,0.3,1.7,0.6,2.5,0.9c0.1-0.3,0.3-0.5,0.4-0.7c0.2,0.3,0.4,0.6,0.6,0.9c0.3,0.3,0.6,0.5,0.9,0.8
				c-0.1,0.4-0.2,0.7-0.4,1.1C488.8,62.8,489.2,63.3,489.5,63.8z"/>
			<path d="M516.9,98.6c-0.1,0.8-0.8,1.6-2,2.6c-0.5,1-1,1.7-1.7,2.3c-0.2,0-0.3,0-0.5,0c-0.4,0.6-0.8,1.1-1.2,1.7
				c-0.5,0-1,0.1-1.5,0.1c-0.6,0.3-1.2,0.6-1.7,0.9c-0.4,0.5-0.7,1.1-1.1,1.6c-0.3,0-0.6-0.1-0.9-0.1c-0.6,0.2-1.1,0.3-1.5,0.3
				c-0.2,0.2-0.4,0.5-0.6,0.7c-0.2,0-0.4-0.1-0.7-0.1c-0.7-0.1-1.5,0.4-2.2,1.4c-0.3-0.4-0.7-0.9-1-1.3c-0.2,0-0.5-0.1-1-0.1
				c-0.7-0.1-1.3-0.3-1.7-0.7c-0.5,0-0.9-0.1-1.4-0.1c-0.2-0.2-0.4-0.4-0.6-0.5c-2-0.6-3.2-1.6-3.6-3.2c0-0.1,0-0.2,0-0.3
				c-0.3-0.2-0.6-0.4-0.9-0.7c-0.1-0.6-0.2-1.1-0.3-1.7c-0.3-0.3-0.6-0.6-0.9-0.8c0-0.5,0.1-1,0.1-1.4c-0.2-1.4-0.4-2.9-0.6-4.3
				c0.1-1.2,0.2-2.3,0.3-3.5c0.2-0.5,0.4-1,0.6-1.5c0.1-0.7,0.1-1.3,0.2-2c0.2-0.5,0.4-1,0.6-1.5c0-0.2,0-0.5,0-0.7
				c0.2-0.4,0.5-0.7,0.7-1.1c-0.1,0.1-0.1,0.1-0.2,0.2c0.1-0.6,0.3-1.2,0.6-1.8c0-0.2,0-0.3,0-0.5c0-0.8,0-1.6-0.1-2.3
				c0.1-1.1,0.6-2,1.6-2.8c0.1-0.1,0.1-0.3,0.1-0.6c0-0.3,0-0.8-0.1-1.6c-0.1-0.8-0.2-1.4-0.2-1.7c0.1-0.8,0.3-1.6,0.8-2.4
				c0.4,0.8,1,1.3,1.9,1.3c0.1,0,0.2,0,0.3,0c0.1-0.2,0.5-0.5,0.9-0.8c0.7-1.6,1.5-2.9,2.5-3.9c0.1-0.1,0.3-0.2,0.4-0.3
				c0-0.3,0.3-1,0.8-2.2c0.2,0,0.5,0.1,0.7,0.1c0.1-0.2,0.2-0.3,0.2-0.5c0.3,0,0.5-0.1,0.8-0.1c0.4-0.5,0.6-0.8,0.7-0.9
				c0.1-0.1,0.8-0.4,2.2-1c0.3-0.4,0.7-0.8,1.3-1.1c0.3-0.1,0.6-0.2,1-0.3c0.1-0.2,0.3-0.4,0.4-0.5c1.8-0.4,2.9-0.5,3.3-0.5
				c0.5,0.1,1,0.3,1.3,0.6c0.2,0,0.3,0,0.5,0c0.2,0.2,0.4,0.3,0.6,0.5c0.7,0.7,1.3,1.3,2,1.8c0.5,0.5,0.9,1,1.4,1.5
				c0,0.1,0,0.3-0.1,0.4c1.2,1.4,1.6,3.1,1.3,5.2c-0.1,0.3-0.3,0.6-0.4,0.9c-0.1,1.1-0.2,2.1-0.3,3.2c-0.3,0.2-0.6,0.3-0.9,0.5
				c-0.4,0.8-0.9,1.6-1.3,2.4c-0.7,0.6-1.4,1.2-2,1.8c-0.1,0.5-0.2,1-0.3,1.5c-2.1,1.2-4,2.2-5.7,2.9c-0.7,0.8-1.5,1.2-2.6,1
				c-0.1,0-0.2,0-0.3,0c-0.6,0.3-1.2,0.6-1.8,1c-0.5-0.1-0.9-0.1-1.4-0.2c-0.7,0.2-1.5,0.5-2.2,0.7c-0.5-0.3-1-0.7-1.5-1
				c-0.1,0-0.1,0-0.2,0c-0.2,0.5-0.4,1.3-0.6,2.3c-0.2,0.2-0.5,0.3-0.7,0.5c-0.1,0.4-0.1,0.8-0.2,1.2c-0.2,0.5-0.5,1.1-0.7,1.6
				c-0.1,1.6-0.1,2.6-0.2,3c-0.1,0.1-0.2,0.2-0.3,0.3c-0.1,0.8-0.2,1.5-0.3,1.8c0,0.1,0,0.2-0.1,0.3c0,0.1,0,0.2,0,0.3
				c-0.1,0.5,0.1,1,0.5,1.3c0.1,0.8,0.3,1.3,0.7,1.5c0.2,0.2,0.3,0.4,0.5,0.6c0.6,0.3,1.2,0.5,1.8,0.8c0,0.1,0,0.2,0,0.3
				c0.2,0.1,0.4,0.2,0.6,0.3c0.9,0.1,1.9,0.2,2.8,0.3c0.6,0,1.1-0.1,1.7-0.1c0.3-0.2,0.6-0.4,0.9-0.6c0.2,0,0.3-0.1,0.5-0.1
				c0.3-0.4,0.7-0.9,1-1.3c0.1,0,0.3,0,0.4,0c0.7-0.2,1.5-0.3,2.2-0.5c0.3-0.4,0.7-0.7,1.3-1c0.1-0.1,0.2-0.3,0.3-0.4
				c1.2-0.1,1.9-0.7,2.3-1.7c0.9-0.8,2-1.1,3.3-0.9c0.1,0,0.2,0,0.3,0.1C516.8,96.5,517.1,97.7,516.9,98.6z M512.9,69.7
				c0-0.2,0-0.6-0.1-1.2c-0.1-0.1-0.3-0.1-0.4-0.2c-0.1,0-0.1,0-0.2,0.1c-0.1,0-0.2,0-0.4,0c-0.1,0-0.3,0.1-0.4,0
				c-0.1,0-0.1,0-0.3-0.1c-0.1,0-0.2,0-0.3,0c-0.3,0.2-0.7,0.4-1,0.6c-0.3,0-0.6,0-0.8,0c-0.2,0-0.3,0.1-0.5,0.1
				c-0.6,0.6-1.2,1.3-1.8,1.9c-0.4,0.2-0.7,0.4-1.1,0.7c-0.6,0.8-1.2,1.7-1.8,2.5c-0.3,0.2-0.6,0.3-0.9,0.5c-0.3,1.1-0.8,2-1.6,2.7
				c-0.1,0.2-0.3,0.4-0.4,0.6c0.7-0.4,1.5-0.5,2.3-0.4c0.2-0.1,0.4-0.1,0.6-0.2c0.1-0.3,0.3-0.6,0.4-0.8c0.4,0.1,0.8,0.2,1.2,0.2
				c0.3-0.4,0.6-0.7,0.9-1.1c0.2,0,0.4,0,0.5,0.1c0.3,0.2,0.6,0.3,0.9,0.5c0.2-0.5,0.4-0.9,0.7-1.4c0.2,0,0.4,0.1,0.6,0.1
				c0.1-0.4,0.1-0.7,0.2-1.1c0.4,0,0.8-0.1,1.2-0.1c0.1-0.1,0.2-0.2,0.3-0.3c0.1-0.3,0.2-0.6,0.3-0.8c0.5-0.6,1-1.1,1.5-1.7
				C512.7,70.5,512.8,70.1,512.9,69.7z"/>
			<path d="M561.6,79.4c-0.5,1-1.1,1.9-1.6,2.9c-1.1-0.1-2.3-0.3-3.4-0.4c-0.7,0.3-1.4,0.5-2.1,0.8c-0.3-0.3-0.6-0.6-1-0.9
				c-0.5,0.1-1,0.3-1.4,0.4c-0.5,0.1-1,0.1-1.5,0.2c-0.4,0.1-0.7,0.3-1,0.4c0,0.1-0.1,0.2-0.1,0.4c-0.7,0.2-1.4,0.4-2.1,0.5
				c-0.6,0.5-1.1,1-1.7,1.4c-0.2,0-0.4-0.1-0.6-0.1c-1.2,0.9-2,1.4-2.5,1.5c-0.6,0.6-1.2,1.3-1.7,1.9c-0.2,0-0.3,0.1-0.5,0.1
				c-0.3,0.5-0.7,1.2-1.2,2.1c-0.4,0.1-0.9,0.1-1.3,0.2c-0.3,0.3-0.5,0.7-0.8,1c-0.3,0.3-0.6,0.5-0.9,0.8c-0.2,0.5-0.3,0.9-0.5,1.4
				c-0.3,0-0.5,0.1-0.8,0.1c-0.1,0.5-0.2,0.9-0.3,1.4c-0.1,0.1-0.2,0.2-0.3,0.2c0.1,0.4,0.2,0.7,0.3,1.2c-0.5,0.1-0.9,0.2-1.4,0.3
				c-0.1,0.4-0.3,0.8-0.4,1.2c-0.4,0.5-0.8,1-1.2,1.4c0.1,0.4,0.1,0.9,0.2,1.3c-0.5,0.5-1,1-1.5,1.5c0,0.7-0.1,1.1-0.1,1.4
				c0,0.1,0,0.2-0.1,0.4c-0.1,0.2-0.2,0.3-0.2,0.5c0,0.3,0,0.6,0,0.9c0.3,0.7,0.7,1.3,1,2c-0.5,0.7-1,1.3-1.5,2
				c-0.4,0.2-0.8,0.4-1.2,0.7c-0.8,0.3-1.7,0.6-2.5,0.9c-0.9-0.7-1.8-1.3-2.7-2c0.2-0.7,0.3-1.5,0.5-2.2c-0.1-0.3-0.1-0.6-0.2-0.9
				c0.2-0.5,0.4-0.9,0.5-1.4c0.1-1,0.2-1.8,0.3-2.3c0-0.2,0.1-0.4,0.2-0.7c0.1-0.3,0.1-0.5,0.1-0.7c0-0.3,0.1-0.6,0.1-1
				c-0.3-0.5-0.4-1.1-0.3-1.6c0.1-0.5,0.4-1,0.9-1.6c0.1-0.3,0.2-1.3,0.4-2.9c0.1-0.1,0.2-0.2,0.3-0.2c0-0.4,0-0.9,0-1.3
				c0.1-0.4,0.3-0.7,0.4-1.1c0-0.2,0-0.5,0-0.7c0.2-0.7,0.5-1.4,0.7-2.1c-0.1-0.3-0.2-0.7-0.3-1c0.2-0.3,0.4-0.7,0.6-1
				c0-0.4-0.1-0.9-0.1-1.3c0.1-0.4,0.3-0.9,0.4-1.5c0.2-1,0.2-1.6,0-2c0.2-0.2,0.3-0.3,0.5-0.5c0-0.6,0-1.2,0-1.8
				c-0.2-0.5-0.4-0.9-0.6-1.4c0.2-0.5,0.5-1,0.7-1.4c-0.1-0.2-0.2-0.4-0.2-0.6c0-0.8,0.1-1.6,0.1-2.4c0.1-0.3,0.1-0.5,0.2-0.8
				c-0.2-0.4-0.3-0.9-0.2-1.5c0.3-1.3,1.8-2.1,4.7-2.5c0.7,0.3,1.4,0.6,2.2,0.9c0,0.6,0,1.3,0.1,1.9c0.2,0.5,0.4,0.9,0.6,1.4
				c-0.3,0.8-0.6,1.7-0.8,2.5c-0.1,1.3-0.2,2.7-0.3,4.3c0,0.5-0.1,1-0.1,1.6c0,0.1,0,0.5-0.1,1.1c-0.1,0.4-0.3,0.8-0.7,1.1
				c-0.1,0.7-0.1,1.3-0.2,2c-0.2,0.7-0.4,1.4-0.6,2.1c-0.2,0.3-0.4,0.6-0.6,0.9c0.1,0.1,0.1,0.3,0.2,0.4c0,0.3,0,0.7-0.1,1
				c0.5-0.4,0.8-0.8,0.9-1.3c0.2-0.5,0.4-0.9,0.7-1.4c0.3-0.3,0.6-0.6,1-0.7c0.2-0.5,0.4-0.9,0.7-1.4c0.5-0.2,0.9-0.3,1.4-0.5
				c0.1-0.4,0.3-0.7,0.4-1.1c0.4-0.3,0.8-0.6,1.2-0.9c0.3-0.4,0.7-0.8,1.1-1.3c1-0.7,1.8-1.1,2.6-1.2c0.1-0.1,0.2-0.2,0.3-0.2
				c0.4-0.4,0.7-0.8,1.1-1.1c0.3,0,0.6,0,0.9,0c0.1-0.1,0.2-0.1,0.3-0.2c0.2-0.2,0.3-0.3,0.5-0.5c0.4-0.1,0.7-0.2,1.1-0.3
				c0.2-0.2,0.5-0.4,0.7-0.5c0.2,0.1,0.3,0.1,0.5,0.2c0.3-0.1,0.5-0.1,0.8-0.2c0.2-0.2,0.3-0.3,0.5-0.5c0.4-0.1,0.8-0.2,1.2-0.3
				c0.6-0.2,1.2-0.4,1.8-0.7c0.8-0.1,1.6-0.1,2.4-0.2c0.9,0.1,1.3,0.1,1.4,0.2c0,0,0,0.1,0,0.1c-0.1,0-0.1,0-0.1,0.1
				c0,0,0.1,0,0.1,0c0.2,0.1,0.6,0,1.2-0.1c0.4-0.2,0.8-0.2,1.4-0.1c0.2,0.1,0.7,0.2,1.2,0.5C561.2,76.9,561.8,77.9,561.6,79.4z"/>
			<path d="M608.9,110.7c-0.4,0.5-0.8,0.9-1.2,1.4c-0.7,1.5-1.4,2.7-2,3.5c-0.3,0.2-0.6,0.4-0.9,0.7c-0.2,0.3-0.3,0.6-0.5,1
				c-0.2,0.1-0.5,0.3-0.7,0.4c-0.3,0.4-0.6,0.8-0.8,1.1c-0.4,0.2-0.9,0.4-1.3,0.6c-0.5,0.7-1.1,1.3-1.6,2c-0.3,0-0.5,0-0.8,0
				c-0.3,0.3-0.5,0.6-0.8,0.8c-0.4,0.1-0.8,0.1-1.2,0.2c-0.4,0.4-0.9,0.8-1.3,1.2c-0.4,0-0.8,0.1-1.2,0.1c-0.2,0.3-0.4,0.7-0.6,1
				c-0.6,0-1.2,0-1.7,0c-1.2,0.8-2.3,1.1-3.4,1c-0.1,0-0.2,0-0.3,0c-1.3,1-2.5,1.2-3.6,0.7c-0.7,0.2-1.3,0.1-2-0.1
				c-0.3,0.1-0.7,0.2-1,0.3c-0.3,0-0.6,0-0.9,0c-0.5,0.2-0.9,0.3-1.4,0.5c-0.3-0.1-0.6-0.2-1-0.4c-0.4,0-0.8-0.1-1.2-0.1
				c-0.3-0.4-0.7-0.7-1-1.1c-1.1-0.5-2.1-1-3.2-1.5c-0.1-0.8-0.2-1.7-0.3-2.5c-0.3-0.9-0.6-1.8-0.9-2.7c0.3-0.4,0.6-0.9,0.9-1.3
				c0-1.2,0-2.3,0-3.5c0.3-0.4,0.6-0.7,0.8-1.1c0.2-0.8,0.4-1.5,0.6-2.3c0.3-0.4,0.5-0.9,0.8-1.3c0.3-0.8,0.6-1.5,0.7-1.8
				c0.4-1.2,1-1.9,1.8-2.3c0.3-0.6,1-1.5,2.3-2.6c0.1,0,0.3,0.1,0.4,0.1c0-0.2,0-0.5,0-0.7c0.2-0.4,0.5-0.8,0.7-1.2
				c0.2-0.5,0.4-0.9,0.5-1.4c0.7-0.4,1.1-0.7,1.2-0.8c0.1-0.5,0.2-0.9,0.2-1.4c0-0.1,0.1-0.2,0.1-0.4c0.7-0.7,1.3-1.5,1.6-2.4
				c0.9-0.7,1.9-1.3,2.8-2c0.4-0.1,0.7-0.2,0.8-0.3c0-0.1,0-0.3,0.1-0.4c0.1,0,0.2,0.1,0.3,0.1c0.6-0.4,1.3-0.7,1.9-1.1
				c0.3-0.7,0.6-1.4,0.9-2.1c0.8,0,1.6,0,2.5,0c1-0.2,1.9-0.9,2.7-2.1c0.4,0.1,0.7,0.3,1.1,0.4c0.8-0.1,1.5-0.1,2,0.1
				c0.5,0.2,1,0.5,1.3,0.9c0.3,0.2,0.6,0.3,0.9,0.5c0.9,0,1.8,0,2.6,0c0.2,0.5,0.4,1.1,0.7,1.6c0.2,0.3,0.4,0.7,0.7,1
				c0.2,0.1,0.5,0.2,0.7,0.3c0.3,0.4,0.6,0.8,0.9,1.2c0.2,0.1,0.4,0.2,0.7,0.3c0.4,1,0.8,2.4,1.2,4c0,0.2,0,0.3,0,0.5
				c0.1,0.2,0.3,0.4,0.4,0.6c0.2,1.1,0.4,2.1,0.6,3.2c-0.1,1.6-0.3,3.2-0.5,4.8c-0.1,0.3-0.3,0.6-0.4,0.9
				C609.4,108.4,609.1,109.5,608.9,110.7z M602.6,110.4c0-0.2,0.1-0.3,0.1-0.5c-0.2-0.6-0.2-1.1,0-1.6c0.2-0.1,0.3-0.2,0.5-0.3
				c0-0.7,0-1.3,0-2c0.3-0.5,0.6-1.1,1-1.6c0-0.2-0.1-0.4-0.1-0.6c-0.4-0.9-0.6-1.5-0.5-1.9c-0.4-0.4-0.4-1.1,0.1-2.1
				c-0.2-0.1-0.3-0.2-0.5-0.3c-0.1-0.7-0.1-1.5-0.2-2.2c-0.2-0.3-0.3-0.6-0.5-0.9c-0.5-0.5-1-1-1.4-1.4c-0.2-0.2-0.4-0.3-0.6-0.5
				c-0.3-0.1-0.5-0.3-0.5-0.6c-0.8,0.4-1.7,0.9-2.5,1.3c-0.7,0.7-1.4,1.4-2.2,2.1c-0.7,0.1-1.5,0.2-2.2,0.3
				c-0.2,0.3-0.4,0.6-0.7,0.9c-0.3,0-0.7,0.1-1,0.1c-0.4,0.7-0.9,1.5-1.3,2.2c-0.4,0.1-0.8,0.1-1.2,0.2c-0.6,0.8-1,1.5-1.3,2.2
				c-0.6,0.3-1.2,0.6-1.9,0.9c0.1,0.1,0.2,0.3,0.3,0.4c-0.3,0.7-0.8,1.2-1.6,1.6c-0.4,0.5-0.9,1-1.5,1.5c-0.1,0.2-0.2,0.5-0.3,0.7
				c0,0.1-0.1,0.2-0.1,0.4c-0.1,0.4-0.3,0.7-0.4,1.1c-0.6,0.7-1.2,1.4-1.9,2.1c0,0.2,0,0.3,0,0.5c-0.3,0.8-0.7,1.7-1,2.5
				c-0.3,0.4-0.6,0.8-0.8,1.1c-0.1,0.4-0.3,0.9-0.4,1.3c0.1,0.5,0.2,1,0.2,1.4c0.3,0.3,0.6,0.6,0.9,0.9c0.1,0.1,0.2,0.2,0.3,0.3
				c0.2,0.1,0.4,0.2,0.6,0.2c0.7,0.3,1.3,0.5,2,0.8c0.2-0.3,0.5-0.5,0.7-0.8c0.1,0,0.2,0.1,0.3,0.1c0.3,0.1,0.4,0.3,0.4,0.5
				c0.3,0,0.5,0,0.8,0c0.2,0.2,0.3,0.3,0.5,0.5c0.5-0.1,0.9-0.3,1.4-0.4c0.1-0.1,0.2-0.1,0.3-0.2c0.3,0,0.5,0.1,0.8,0.1
				c0.6-0.5,1.8-0.8,3.4-1c0.1-0.1,0.2-0.3,0.4-0.4c0.7-0.2,1.4-0.4,2.1-0.6c0.5-0.4,1-0.7,1.5-1.1c0.5-0.1,1.1-0.1,1.6-0.2
				c0.1-0.1,0.2-0.3,0.3-0.4c0.3-0.3,0.6-0.5,0.9-0.8c0.2-0.4,0.4-0.8,0.5-1.2c0.5-0.2,0.9-0.3,1.4-0.5c0.2-0.2,0.4-0.3,0.6-0.5
				c0.2-0.1,0.4-0.2,0.7-0.4c0.1-0.8,0.2-1.4,0.4-1.6c0.2-0.5,0.7-1,1.3-1.5C602.2,110.6,602.4,110.5,602.6,110.4z"/>
			<path d="M669.5,103c-0.7,1.1-2.1,1.8-4.2,2c-0.1-0.3-0.2-0.5-0.4-0.8c-0.6,0-1.2-0.1-1.8-0.1c0.2-1.4,0.3-2.8,0.5-4.2
				c0.4-0.9,0.7-1.7,0.7-2.5c-0.2,0-0.4,0-0.7-0.1c-0.3-0.5-0.6-1.1-0.9-1.6c-0.2-0.1-0.3-0.3-0.5-0.4c-0.5,0-1,0-1.5,0
				c-0.5-0.5-1-1-1.5-1.5c-0.3,0-0.5-0.1-0.8-0.1c-0.9,0.3-1.5,0.3-2,0c-0.2-0.1-0.4-0.3-0.5-0.4c-0.2,0.3-0.3,0.5-0.5,0.8
				c-1.1,0.6-2.5,1.3-4.1,2.1c-0.4,0.5-1.2,1.5-2.5,2.8c-0.3,0-0.7,0.1-1,0.1c-0.3,0.2-0.6,0.5-0.9,0.7c-0.3,0.2-0.6,0.4-0.9,0.5
				c-0.2,0.6-0.4,1.3-0.6,1.9c-0.6,0.3-1.2,0.7-1.8,1c-0.4,0.4-0.7,0.7-1.1,1.1c-0.2,0.2-0.5,0.3-0.7,0.5c-0.2,0.4-0.5,0.8-0.7,1.2
				c-1,0.8-2,1.6-2.9,2.4c-0.2,0.5-0.5,1-0.7,1.5c-0.2,0.2-1,0.8-2.3,1.9c-0.1,0.1-0.2,0.2-0.3,0.3c0.7,0.1,1.2,0.2,1.6,0.3
				c0.2,0.1,0.3,0.2,0.5,0.3c0.1,0.1,0.3,0.2,0.7,0.4c0.1,0,0.2,0.1,0.2,0.1c0.9,0.5,1.8,1,2.7,1.5c0.1,0,0.2,0,0.3,0
				c0.7,0.2,1.1,0.4,1.2,0.5c0.5,0.3,1,0.7,1.5,1.3c0.6,0.4,1.2,0.7,1.6,0.9c0.4,0.2,0.8,0.5,1.1,0.6c0.2,0.1,0.5,0.3,0.7,0.4
				c0.3,0.3,0.6,0.6,0.8,0.9c1.8,1.2,2.2,2.5,1.2,4.1c-0.3,0.4-0.7,0.9-1.3,1.5c-1.4-0.3-2.8-0.7-4.2-1c-0.6-0.5-1.2-1-1.8-1.5
				c-0.7-0.1-1.8-0.4-3.3-0.9c0-0.3,0-0.5,0-0.8c-0.6,0.2-1.2,0.1-1.8-0.3c-0.3-0.2-0.6-0.3-0.9-0.5c-0.9,0-1.9-0.1-2.8-0.1
				c-0.2-0.4-0.5-0.8-0.7-1.2c-0.1-0.1-0.3-0.1-0.4-0.2c-0.8,0.3-1.5,0.4-2.2,0.3c-0.1,0.2-0.1,0.4-0.2,0.6c-0.3,0.3-0.7,0.7-1,1
				c-0.1,0.6-0.2,1.1-0.4,1.7c-0.8,0.6-1.5,1.1-2.3,1.7c-0.6,1.2-1.1,2.4-1.7,3.5c-0.4,0.3-0.7,0.6-1.1,0.9
				c-0.1,0.5-0.2,0.9-0.3,1.4c-0.7,0.5-1.3,0.9-2,1.4c-0.1,0.4-0.2,0.8-0.4,1.1c0,0.1,0,0.2-0.2,0.5c0,0.1-0.5,0.6-1.3,1.7
				c-0.9,1.1-1.6,2.2-2.3,3.3c-0.1,0.3-0.3,0.5-0.4,0.8c0,0.1,0.1,0.6,0.2,1.5c-0.4,0.4-0.9,0.8-1.3,1.2c-0.2,0.7-0.3,1.3-0.5,2
				c-0.3,0.4-0.7,0.8-1,1.2c-0.6,1.5-1.1,3-1.7,4.6c-0.8,1.6-1.6,3.1-2.5,4.7c0,0.8,0,1.5,0,2.3c-0.6,0.5-1.1,1-1.7,1.5
				c-0.2,1.5-0.5,2.6-0.9,3.3c0,0.1-0.1,0.2-0.1,0.3c-0.1,0.1-0.1,0.3-0.2,0.5c-0.1,0.2-0.2,0.4-0.2,0.4c-1.3,2.2-2.9,2.8-4.9,1.9
				c0.1-0.5,0.2-1.1,0.3-1.6c-0.2-0.3-0.3-0.7-0.5-1c0.2-0.5,0.5-1.1,0.7-1.6c0.5-1.8,0.9-3.7,1.3-5.5c0.2-0.3,0.4-0.6,0.5-0.9
				c0.4-1.1,0.6-1.8,0.7-1.9c0.2-0.3,0.3-0.5,0.4-0.6c0.2-0.5,0.3-1.1,0.5-1.6c0.4-0.4,0.7-0.9,1.1-1.3c0.1-0.4,0.2-0.7,0.2-1.1
				c0.3-0.6,0.7-1.3,1-1.9c0.8-1.9,1.6-3.8,2.4-5.7c0-0.1,0.1-0.1,0.1-0.2c0.2-0.3,0.3-0.6,0.5-0.9c0.2-0.4,0.4-0.8,0.7-1.2
				c0.1-0.4,0.1-0.9,0.2-1.3c0.3-0.2,0.6-0.5,1-0.7c0.8-1.5,1.6-3,2.5-4.5c0.2-0.1,0.4-0.2,0.7-0.3c0.6-1,1.1-2.1,1.7-3.1
				c0.2-0.2,0.4-0.4,0.6-0.6c0.4-0.9,0.8-1.9,1.2-2.8c0.3-0.3,0.6-0.6,0.9-0.9c0.7-0.9,2.2-2.9,4.6-6.1c-0.1-0.1-0.2-0.1-0.3-0.2
				c-0.3-0.3-0.6-0.6-0.8-0.9c-0.4-0.2-0.8-0.4-1.2-0.6c-0.8-0.3-1.6-0.5-2.4-0.8c-0.4-0.3-0.8-0.7-1.2-1c-0.9-0.2-1.7-0.4-2.6-0.6
				c-0.2-0.2-0.5-0.4-0.7-0.6c-0.3-0.1-0.6-0.2-1-0.4c-1.7-2.3-2.6-3.7-2.4-4.5c0.1-0.6,0.2-1.1,0.3-1.7c1.8-2,3.4-2.7,4.7-2.1
				c0.1,0,0.9,0.7,2.5,1.9c1.5,0.8,3.1,1.6,4.6,2.5c0.8,0.2,1.7,0.5,2.5,0.7c0.6,0.3,1.3,0.7,1.9,1c0.2,0.2,0.4,0.3,0.7,0.5
				c0.3-0.3,0.6-0.7,0.9-1c0.5-0.8,1-1.6,1.5-2.4c0.3-0.3,0.7-0.5,1-0.8c0.2-0.6,0.5-1.2,0.7-1.8c0.4-0.6,0.9-1.1,1.6-1.3
				c0.2-0.3,0.4-0.6,0.5-0.9c0.5-0.2,1-0.4,1.4-0.6c0.6-0.8,1.2-1.6,1.9-2.4c0.2-0.1,0.4-0.2,0.6-0.3c0.1-0.4,0.3-0.8,0.4-1.2
				c1.1-0.4,1.8-0.9,2.1-1.4c0.1-0.2,0.1-0.4,0.2-0.5c-0.3,0.5,0.9-0.6,3.5-3.2c0.3,0,0.6-0.1,0.8-0.1c0.4-0.6,0.7-1.2,1.1-1.9
				c0,0.2,0,0.4,0,0.6c0-0.1,0.1-0.2,0.1-0.3c0.6-1,1.4-1.5,2.4-1.5c0.3-0.2,0.6-0.3,1-0.5c0.8-0.6,1.7-1.3,2.5-1.9
				c0.1,0,0.1,0.1,0.2,0.1c0.6,0.3,1.2,0.2,1.6-0.6c0.1-0.1,0.1-0.2,0.2-0.3c1,0.2,2,0.3,2.9,0.5c0.2,0.1,0.5,0.3,0.7,0.4
				c0.9,0.2,1.7,0.5,2.5,1c0.2,0.1,0.4,0.2,0.6,0.4c0.2,0,0.4,0.1,0.5,0.1c0.7,0.2,1.4,0.5,2.2,0.7c0.6,0.6,1.3,1.2,1.9,1.8
				c0.1,0.1,0.3,0.4,0.5,0.7c0.7,0.1,1.2,0.2,1.4,0.4c0.8,0.5,1.2,1.5,1.1,3.1c0.2,0.5,0.4,1,0.6,1.6c-0.1,0.7-0.2,1.4-0.3,2.2
				c0.1,0.7,0.3,1.3,0.4,2c-0.4,0.8-0.8,1.7-1.2,2.5C669.6,102.8,669.5,102.9,669.5,103z"/>
			<path d="M686.7,170.8c-0.4,0-0.8,0.1-1.2,0.1c-0.5,0.6-0.9,1.3-1.4,1.9c-1.1,0.2-2.2,0.5-3.4,0.7c-0.3,0.3-0.5,0.6-0.8,0.9
				c-0.3,0-0.7,0.1-1,0.1c-0.1,0.3-0.2,0.7-0.2,1c-0.8,0.1-1.7,0.2-2.5,0.3c-0.8,0.3-1.5,0.6-2.3,0.9c-0.7-0.1-1.4-0.2-2.1-0.3
				c-1,0.2-1.9,0-2.5-0.5c-0.6,0.3-1.1,0.6-1.7,0.9c0-0.4,0-0.8,0-1.2c-0.5,0.1-1,0.3-1.5,0.4c0.2-0.2,0.3-0.7,0.3-1.4
				c-0.1-0.2-0.1-0.4-0.2-0.7c-0.4,0.1-0.7,0.2-1.1,0.2c-0.1-0.1-0.1-0.1-0.2-0.2c-0.3,0.1-0.7,0.1-1,0.2c-0.2-0.3-0.4-0.7-0.6-1
				c-0.6-0.2-1.2-0.4-1.8-0.6c0-0.5-0.1-1-0.1-1.5c-0.1-0.1-0.3-0.3-0.6-0.5c-0.7-0.6-1.4-1.5-2-2.7c-0.2-0.4-0.3-0.8-0.5-1.2
				c0-0.2,0-0.4,0-0.6c-0.2-0.4-0.5-0.9-0.7-1.3c0.3-0.7,0.6-1.3,0.8-2c-0.7-0.6-1.3-1.4-1.8-2.4c0.4-1.5,0.9-3,1.3-4.6
				c0.3-0.1,0.5-0.2,0.8-0.3c0-0.3,0.1-0.6,0.1-0.9c0.4-0.5,0.7-0.9,1.1-1.4c0.1-0.4,0.1-0.7,0.2-1.1c0.4-0.2,0.8-0.4,1.1-0.6
				c0.2-0.7,0.5-1.3,0.8-1.7c0.1-0.1,0.2-0.2,0.3-0.3c0.1-0.2,0.2-0.3,0.2-0.3c0.6-0.8,1.2-1.6,1.9-2.4c0.3-0.2,0.6-0.4,0.9-0.6
				c1.2-1.5,2.4-3.1,3.6-4.6c0.4-0.3,0.8-0.6,1.1-0.9c0-0.2,0.1-0.5,0.1-0.7c0.8-0.6,1.6-1.1,2.4-1.6c0.1-0.3,0.1-0.6,0.2-1
				c0.4-0.6,0.9-1.1,1.3-1.7c0.2-0.1,0.5-0.1,0.7-0.2c0.3-0.4,0.5-0.8,0.8-1.1c0.1-0.3,0.2-0.7,0.3-1c0.9-0.7,1.7-1.3,2.6-2
				c0.6-1.2,1.3-2.3,1.9-3.5c0.1,0,0.3,0,0.4-0.1c0.3-0.3,0.5-0.7,0.8-1c0.2-0.3,0.5-0.7,1-1.2c0.6-0.7,1-1.3,1.3-1.7
				c0.1-0.2,0.3-0.4,0.4-0.5c0.4-0.9,0.8-1.8,1.2-2.7c0.4-0.3,0.8-0.4,1.2-0.4c0-0.2,0-0.5,0-0.8c0.5-0.1,0.9-0.3,1.1-0.6
				c0.3-0.4,0.4-1.1,0.3-2c0.4-0.5,0.8-0.8,1.3-1c0.1-0.3,0.2-0.7,0.3-1c0.4-0.2,0.7-0.4,1.1-0.6c0.3-1.2,0.5-2.4,0.8-3.6
				c0.5,0.2,1,0.5,1.5,0.7c0-0.1,0.1-0.1,0.1-0.2c1.3,0.2,2.6,0.5,3.9,0.7c0,0.9,0.1,1.8,0.1,2.7c-0.2,0.3-0.3,0.6-0.5,0.9
				c0.2,0.6,0.3,1.2,0.5,1.7c-0.3,0.4-0.7,0.7-1,1.1c-0.3,0.4-0.8,0.9-1.5,1.6c0.2,0.7,0.1,1.2-0.1,1.5c-0.1,0.2-0.4,0.3-0.7,0.3
				c0,0.2,0,0.4,0.1,0.5c-0.4,0.3-0.9,0.7-1.3,1c-0.2,0.6-0.4,1.2-0.6,1.8c-0.2,0.1-0.4,0.2-0.7,0.4c0.3,0.4,0.5,0.9,0.8,1.3
				c-0.4,0.2-0.8,0.4-1.3,0.6c-0.7,0.6-1.3,1.1-2,1.7c-0.3,0.3-0.7,0.7-1.4,1.2c-0.2,0.3-0.8,1-1.7,2.1c-0.2,0.2-0.3,0.4-0.5,0.6
				s-0.3,0.4-0.5,0.6c-0.4,0.3-0.9,0.7-1.3,1c-0.4,0.5-0.8,0.9-1.3,1.3c-0.1,0.1-0.2,0.1-0.2,0.2c0,0.4,0,1,0,1.6
				c-0.7,0.3-1.4,0.7-2.1,1c-0.2,0.4-0.3,0.7-0.5,1.1c-0.2,0.1-0.3,0.2-0.5,0.3c-0.3,0.4-0.8,0.8-1.4,1.3c-0.1,0.1-0.1,0.2-0.2,0.4
				c-0.3,0.3-0.5,0.5-0.8,0.8c-0.3,0.4-0.7,0.7-1,1.1c-0.7,0.8-1.5,1.5-2.2,2.3c0.2,0.3,0.5,0.6,0.7,0.9c0.7-0.8,1.4-1.5,2.1-2.3
				c0.6-0.4,1.2-0.8,1.8-1.2c0.1,0.1,0.1,0.3,0.2,0.4c0.5-0.3,0.9-0.5,1.4-0.8c0.9-0.8,2-1.3,3.3-1.7c0.3-0.1,0.6-0.2,0.9-0.3
				c0.1,0,0.3,0,0.4-0.1c0,0.1-0.1,0.1-0.1,0.2c0.3-0.2,0.7-0.5,1-0.7c0.6-0.1,1.1-0.2,1.7-0.3c0.3,0,0.6-0.1,1-0.1
				c0.1-0.1,0.2-0.2,0.3-0.2c0.3-0.1,0.6-0.2,0.9-0.3c0.5-0.7,1.2-1,1.9-0.9c0.2-0.2,0.4-0.3,0.7-0.5c0.4,0.2,0.8,0.3,1.2,0.5
				c0.2,0,0.4,0,0.6,0.1c0.2-0.1,0.4-0.2,0.5-0.3c0.3-0.4,0.6-0.7,0.9-1.1c0.4,0.2,0.8,0.4,1.2,0.6c0.3,0.1,0.5,0.2,0.8,0.2
				c0-0.3,0-0.6-0.1-0.9c0.5,0.2,1,0.4,1.4,0.7c0.7,0,1.4,0,2.1,0.1c0.8,0.6,1.5,1.3,2.2,1.9c0.2,0.7,0.4,1.3,0.6,2
				c0.1,0.1,0.2,0.3,0.4,0.4c-0.1,0.9-0.3,1.9-0.4,2.8c-0.2,0.3-0.4,0.5-0.6,0.8c0.2,0.2,0.3,0.4,0.5,0.6c-0.4,0.6-0.8,1.2-1.2,1.7
				c0.1,0.4,0.1,0.8,0.2,1.2c-0.3,0.4-0.7,0.7-1,1.1c0,0.3,0,0.6-0.1,0.9c0.1,0.2,0.1,0.5,0.2,0.7c-0.6,0.9-1.2,1.7-1.9,2.6
				c-0.1,0.1-0.1,0.1-0.2,0.2c-0.2,0.2-0.4,0.7-0.5,1.3c-0.1,0.7-0.3,1.1-0.6,1.4c-0.3,0.3-0.6,0.5-1,0.7c0.2,0.4,0.3,0.7,0.5,1.1
				c-0.7,0.6-1.4,1-2,1.2c-0.4,0.6-0.9,1.2-1.3,1.8c-0.3,0.6-0.5,1.1-0.8,1.3c-0.1,0.1-0.4,0.4-0.9,0.7c-1,1-2,2-3,3
				c-0.1,0.3-0.2,0.6-0.3,0.9c-0.5,0.3-0.9,0.6-1.4,0.9C687.3,169.7,687,170.3,686.7,170.8z M687.4,161.4c0.4-0.5,0.7-1,1.1-1.4
				c0.4-0.4,0.8-0.8,1.2-1.2c0.9-1.3,1.7-2.5,2.6-3.8c0.5-1,1-2,1.6-3c0.3-1,0.7-1.9,1-2.9c0.2-1.3,0.5-2.6,0.7-3.9
				c-0.2-0.1-0.3-0.1-0.5-0.2c-0.2,0-0.4,0.1-0.6,0.1c-0.1-0.1-0.2-0.2-0.4-0.3c-1,0.7-1.9,0.8-2.8,0.1c-0.9,0.2-2,0.6-3.4,1
				c-0.5,0-1,0.1-1.6,0.1c-0.4,0.3-0.8,0.6-1.3,0.9c-0.5,0.1-0.9,0.3-1.4,0.4c-0.8,0.4-1.5,0.9-2.3,1.3c-0.7,0.9-1.8,1.5-3.2,2.1
				c-0.3,0.1-0.6,0.2-1,0.4c-0.3,0.4-0.7,0.8-1,1.2c-0.8,0.3-1.7,0.5-2.5,0.8c-0.9,0.7-1.8,1.5-2.7,2.2c-0.2,0-0.5,0-0.7-0.1
				c0,0.1-0.1,0.2-0.2,0.4c-0.1,0.2-0.2,0.3-0.3,0.4c-0.8,0.9-1.7,1.7-2.9,2.3c-0.2,0.6-0.5,1.1-0.7,1.7c-0.4-0.1-0.8-0.2-1.2-0.3
				c-0.1,0.1-0.3,0.1-0.4,0.2c-0.4,0.1-0.7,0.1-1.1,0.2c0.4,0.5,0.8,1,1.2,1.6c0.1,0.4,0.3,0.8,0.4,1.2c0.5,0.3,1,0.6,1.5,0.9
				c0.2,0.5,0.5,1.1,0.7,1.6c-0.3,0.4-0.6,0.7-0.9,1.1c0,0.2,0,0.3,0,0.5c0.5,0.4,1,0.8,1.6,1.3c0.4,0.2,0.8,0.4,1.2,0.6
				c0.7-0.2,1.2-0.1,1.7,0.3c0.1,0.1,0.1,0.1,0.2,0.2c0.2,0.1,0.5,0.1,0.7,0.2c0.2-0.4,0.3-0.7,0.5-1.1c0.6,0.5,1.2,1,1.8,1.5
				c1.5-1,3.2-1.5,5.2-1.6c0.2-0.2,0.4-0.5,0.7-0.7c0.7-0.3,1.5-0.6,2.2-0.9c0.5-0.6,1-1.1,1.5-1.7c0.6-0.6,1.3-1.2,1.9-1.7
				c0.3-0.4,0.6-0.9,0.9-1.3C686.9,161.7,687.1,161.6,687.4,161.4z"/>
			<path d="M717.2,219.2c-0.6,0.5-1.7,0.6-3.2,0.5c-0.2-0.1-0.4-0.2-0.6-0.4c-0.4,0-0.7,0-1.1,0.1c-0.4-0.3-0.9-0.6-1.3-0.9
				c-0.5,0.1-0.9,0-1.1-0.2c0,0,0-0.1,0-0.2c-0.1-0.1-0.1-0.2-0.1-0.2c-1.3-0.5-2.5-1.5-3.6-2.9c-0.1-0.2-0.3-0.4-0.4-0.5
				c-0.3-0.7-0.6-1.3-0.9-2c-0.1-0.5-0.2-1.1-0.3-1.6c0.1-1.5,0.3-3,0.4-4.5c0.5-0.7,1.1-1.5,1.6-2.3c0-0.6,0.1-1.3,0.1-1.9
				c0.3,0,0.7-0.2,1.2-0.6c0.3-0.3,0.7-0.9,1.1-1.8c0.7-0.4,1.3-0.9,2-1.3c0.1-0.1,0.2-0.2,0.3-0.3c0.6-0.5,1.2-1.3,1.9-2.5
				c0.9-0.5,1.7-1,2.6-1.5c-0.9,0.3-1.8,0.5-2.7,0.8c-0.3-0.3-0.7-0.6-1-0.9c-0.6,0.4-1.1,0.8-1.7,1.2c-0.5-0.2-1-0.5-1.4-1
				c-0.8,0.3-1.6,0.6-2.4,0.8c-0.6,0-1.2,0.1-1.9,0.1c-0.8,0-1.3,0-1.5-0.2c-0.1,0-0.2,0-0.3-0.1c-1.6,0-3.2,0.1-4.8,0.2
				c-0.1-0.1-0.2-0.2-0.2-0.3c-0.9,0.1-1.8,0.2-2.7,0.3c-0.6-0.2-1.1-0.3-1.7-0.5c-0.5,0.1-1,0.2-1.5,0.3c-0.6-0.3-1.2-0.6-1.8-0.9
				c-1-0.4-1.9-0.7-2.9-1.1c-0.1-0.6-0.3-1.3-0.4-1.9c-0.8-0.8-0.9-1.8-0.4-2.9c-0.1-0.3-0.1-0.6-0.2-0.9c0.1-0.1,0.3-0.3,0.6-0.5
				c0.2-0.2,0.4-0.4,0.5-0.5c0-0.6,0-1.3,0-1.9c0.2-0.1,0.4-0.1,0.7-0.2c0.4-0.9,0.8-1.8,1.2-2.7c0.2,0,0.3,0,0.5,0
				c0,0,0.1-0.1,0.1-0.1c0.1-0.1,0.2-0.2,0.4-0.4c0-0.3,0.1-0.4,0.2-0.5c0.5-0.5,1-1,1.6-1.4c0.6-0.6,1.2-1.2,1.9-1.8
				c0.4-0.6,0.9-1.1,1.3-1.7c0.5-0.3,0.9-0.5,1.2-0.8c0.3-0.3,0.5-0.7,0.7-1.2c0.4,0,0.8,0.1,1.3,0.1c0.3-0.3,0.6-0.6,0.8-0.8
				c0.7-0.9,1.4-1.7,2.1-2.6c1.7-1.3,3.5-2.5,5.2-3.8c0.7-0.7,1.6-2,2.7-3.9c1.6-1.4,3.4-1.3,5.2,0.3c0.1,0.2,0.2,0.5,0.3,0.7
				c0.3,0.4,0.5,0.7,0.8,1.1c-0.1,0.9-0.2,1.7-0.3,2.6c-0.8,0.4-1.6,0.8-2.4,1.3c-1,1-2,2-3.1,3c-0.7,0.8-1.4,1.6-2.2,2.5
				c-0.4,0.1-0.8,0.3-1.2,0.4c-0.1,0.3-0.2,0.5-0.4,0.8c-0.6,0.2-1.1,0.4-1.7,0.6c-0.2,0.2-0.5,0.5-0.7,0.7
				c-0.1,0.1-0.1,0.1-0.2,0.2c-0.1,0.1-0.4,0.3-0.6,0.6c-0.6,0.6-1.3,1.2-2,1.7c-0.1,0.2-0.3,0.4-0.4,0.6c-0.4,0.3-0.8,0.6-1.2,0.9
				c-0.2,0.3-0.5,0.6-0.7,0.9c-0.3,0.3-0.6,0.7-1,1c0,0.6-0.1,1.1-0.6,1.5c-0.4,0.4-0.9,0.6-1.6,0.6c-0.1,0.1-0.2,0.2-0.3,0.3
				c-0.6,1-1,1.6-1.3,1.8c0,0.4,0,0.8-0.1,1.2c0.4,0.1,1,0.1,1.6,0.2c0.6-0.3,1.2-0.3,1.8,0c0.2-0.2,0.5-0.5,0.7-0.7
				c0.2,0.2,0.7,0.6,1.4,1c0.3-0.2,0.5-0.3,0.8-0.5c0.5,0.2,1,0.4,1.5,0.6c0.1,0,0.3,0,0.4,0c0.6,0,1.4,0.2,2.3,0.6
				c0.1-0.1,0.2-0.2,0.3-0.3c0.7,0.1,1.4,0.2,2.2,0.3c1.2-0.5,2.3-0.5,3.3,0c1,0,1.6,0.1,1.9,0.1c0.7-0.1,1.3-0.2,2-0.2
				c0.1-0.1,0.2-0.1,0.2-0.2c0.1,0,0.3,0.1,0.4,0.1c0.3,0.1,0.6,0.2,0.8,0.3c0.4-0.2,0.9-0.4,1.3-0.6c0.6,0.3,1.3,0.6,1.9,0.8
				c0.1,0.1,0.2,0.1,0.3,0.2c0.3,0,0.6,0,0.9,0c0.2-0.2,0.5-0.4,0.7-0.6c0.2,0.1,0.3,0.2,0.5,0.3c0.9-0.5,1.8-0.7,2.7-0.5
				c1.1-0.4,2.3-0.8,3.5-1.1c0.6-0.2,1.1-0.5,1.7-0.7c0.1,0,0.3-0.1,0.4-0.1c0.1,0.1,0.2,0.2,0.2,0.3c0.3,0.1,0.5,0.1,0.8,0.2
				c-0.1-0.2-0.1-0.4-0.2-0.6c1.4-0.2,2.7-0.6,3.9-1.2c0.6,0.7,1.2,1.4,1.8,2.1c0,1-0.1,1.9-0.1,2.9c-0.2,0.6-0.4,1.2-0.7,1.7
				c-1.3,0.6-2.6,1.2-4,1.8c-0.8,0.1-1.6,0.1-2.4,0.2c-1.2,0.5-2.5,1-3.7,1.6c-0.3-0.1-0.7-0.2-1-0.3c-0.4,0.3-0.8,0.6-1.1,0.9
				c-0.4,0.1-0.8,0.2-1.2,0.3c-0.4,0.4-0.8,0.9-1.2,1.3c-0.3,0-0.7-0.1-1-0.1c-0.7,0.8-1.5,1.5-2.2,2.3c-1.1,1-2.2,2-3.3,3
				c0.1,0.1,0.2,0.2,0.3,0.4c-0.7,0.5-1.3,1.1-2,1.6c-0.2,0.7-0.4,1.3-0.5,2c0.1,0.4,0.1,0.9,0.2,1.3c-0.1,0.1-0.2,0.2-0.3,0.4
				c0.2,0.4,0.4,0.8,0.5,1.5c0.4,0.6,0.8,1.2,1.2,1.8c0.4,0.3,0.7,0.5,1.1,0.8c0.8,0.4,1.6,0.7,2.4,1.1c0.5,0.2,0.9,0.6,1.4,1.1
				C718.7,216.9,718.5,218.2,717.2,219.2z"/>
			<path d="M746.7,247.9c-0.4-0.1-0.8-0.2-1.2-0.3c-0.6,0.5-1.3,1-1.9,1.4c-1.1-0.2-2.3-0.3-3.4-0.5c-0.3,0.2-0.7,0.4-1,0.6
				c-0.3-0.1-0.7-0.2-1-0.2c-0.2,0.3-0.3,0.6-0.5,0.9c-0.8-0.2-1.7-0.4-2.5-0.6c-0.8,0-1.6,0.1-2.4,0.1c-0.6-0.3-1.3-0.7-1.9-1
				c-1-0.2-1.8-0.6-2.2-1.3c-0.6,0.1-1.2,0.2-1.9,0.3c0.1-0.4,0.2-0.8,0.3-1.2c-0.5,0-1,0-1.5-0.1c0.3-0.2,0.5-0.6,0.7-1.3
				c0-0.2,0-0.5,0-0.7c-0.4,0-0.7-0.1-1.1-0.1c0-0.1-0.1-0.1-0.1-0.2c-0.3-0.1-0.7-0.1-1-0.2c-0.1-0.4-0.2-0.8-0.3-1.2
				c-0.5-0.4-1-0.8-1.5-1.2c0.1-0.5,0.2-1,0.3-1.5c-0.1-0.1-0.2-0.4-0.4-0.6c-0.5-0.8-0.9-1.9-1.1-3.4c0-0.5-0.1-0.9-0.1-1.4
				c0.1-0.2,0.1-0.4,0.2-0.6c-0.1-0.5-0.2-1-0.3-1.5c0.5-0.6,0.9-1.1,1.4-1.7c-0.5-0.9-0.8-1.8-1.1-3c0.9-1.4,1.7-2.7,2.6-4.1
				c0.3,0,0.5,0,0.8,0c0.1-0.3,0.3-0.5,0.4-0.8c0.5-0.3,1-0.7,1.4-1c0.2-0.3,0.3-0.7,0.5-1c0.4-0.1,0.8-0.2,1.3-0.3
				c0.4-0.7,0.8-1.2,1.3-1.5c0.1-0.1,0.2-0.1,0.4-0.2c0.2-0.1,0.3-0.2,0.3-0.2c0.8-0.6,1.7-1.2,2.5-1.8c0.3-0.1,0.7-0.2,1-0.3
				c1.6-1.1,3.2-2.3,4.7-3.4c0.4-0.2,0.9-0.3,1.3-0.5c0.1-0.2,0.2-0.4,0.3-0.6c0.9-0.3,1.9-0.6,2.8-0.8c0.2-0.3,0.3-0.6,0.5-0.9
				c0.6-0.4,1.2-0.8,1.8-1.3c0.3,0,0.5,0,0.8,0c0.4-0.3,0.7-0.6,1.1-0.9c0.2-0.3,0.4-0.6,0.6-0.9c1-0.4,2-0.8,3.1-1.1
				c1-0.9,1.9-1.9,2.8-2.8c0.1,0,0.3,0,0.4,0.1c0.3-0.2,0.7-0.5,1-0.7c0.3-0.2,0.7-0.5,1.3-0.9c0.8-0.5,1.3-1,1.8-1.3
				c0.2-0.1,0.4-0.3,0.6-0.4c0.6-0.7,1.3-1.5,1.9-2.2c0.5-0.1,0.9-0.2,1.2,0c0.1-0.2,0.2-0.5,0.3-0.8c0.5,0,0.9,0,1.3-0.3
				c0.4-0.3,0.7-0.9,0.9-1.9c0.5-0.3,1-0.5,1.5-0.6c0.2-0.3,0.4-0.6,0.6-0.9c0.4-0.1,0.8-0.1,1.2-0.2c0.6-1.1,1.2-2.2,1.8-3.3
				c0.4,0.4,0.8,0.8,1.2,1.2c0.1,0,0.1-0.1,0.2-0.1c1.2,0.6,2.3,1.3,3.5,2c-0.2,0.9-0.4,1.8-0.7,2.7c-0.2,0.2-0.5,0.5-0.7,0.7
				c0,0.6,0,1.3,0,1.9c-0.4,0.2-0.9,0.5-1.3,0.7c-0.4,0.3-1.1,0.7-1.9,1.1c0,0.8-0.2,1.3-0.6,1.5c-0.2,0.1-0.4,0.1-0.8,0.1
				c0,0.2-0.1,0.4-0.1,0.6c-0.5,0.2-1,0.4-1.5,0.6c-0.4,0.5-0.7,1.1-1.1,1.6c-0.2,0-0.5,0.1-0.7,0.1c0.1,0.5,0.2,1.1,0.3,1.6
				c-0.5,0.1-0.9,0.1-1.4,0.2c-0.8,0.3-1.6,0.7-2.4,1c-0.4,0.2-0.9,0.4-1.7,0.7c-0.3,0.2-1.1,0.7-2.2,1.5c-0.2,0.1-0.4,0.3-0.7,0.4
				c-0.2,0.1-0.4,0.3-0.7,0.4c-0.5,0.2-1,0.4-1.5,0.6c-0.5,0.3-1,0.6-1.6,0.8c-0.1,0-0.2,0.1-0.3,0.1c-0.1,0.5-0.3,1-0.5,1.6
				c-0.8,0.1-1.5,0.2-2.3,0.3c-0.3,0.3-0.5,0.6-0.8,0.9c-0.2,0.1-0.4,0.1-0.6,0.2c-0.4,0.3-1,0.6-1.7,0.8c-0.1,0.1-0.2,0.2-0.3,0.3
				c-0.3,0.2-0.6,0.4-0.9,0.5c-0.4,0.3-0.9,0.5-1.3,0.8c-0.9,0.5-1.8,1-2.8,1.5c0.1,0.4,0.3,0.8,0.4,1.2c0.9-0.5,1.8-1,2.6-1.6
				c0.7-0.2,1.4-0.4,2.1-0.6c0,0.1,0,0.3,0.1,0.4c0.5-0.1,1-0.2,1.5-0.4c1.1-0.5,2.3-0.7,3.6-0.6c0.3,0,0.6,0,1,0
				c0.1,0,0.3,0,0.4,0.1c-0.1,0-0.1,0.1-0.2,0.1c0.4-0.1,0.8-0.2,1.2-0.3c0.6,0.1,1.1,0.2,1.7,0.3c0.3,0.1,0.6,0.1,0.9,0.2
				c0.1,0,0.3-0.1,0.4-0.1c0.3,0,0.6,0,1,0.1c0.7-0.5,1.4-0.6,2-0.3c0.3-0.1,0.5-0.2,0.8-0.3c0.3,0.3,0.7,0.6,1,0.9
				c0.2,0.1,0.3,0.2,0.5,0.3c0.2,0,0.4-0.1,0.6-0.1c0.4-0.2,0.8-0.5,1.2-0.7c0.3,0.4,0.7,0.7,1,1.1c0.2,0.2,0.4,0.3,0.6,0.5
				c0.1-0.3,0.1-0.6,0.2-1c0.4,0.4,0.8,0.8,1.2,1.2c0.7,0.3,1.3,0.5,2,0.8c0.5,0.9,1,1.8,1.6,2.7c0,0.7,0,1.5,0,2.2
				c0.1,0.2,0.1,0.4,0.2,0.6c-0.4,0.9-0.8,1.8-1.2,2.7c-0.3,0.2-0.5,0.4-0.8,0.6c0.1,0.2,0.2,0.5,0.3,0.7c-0.5,0.4-1.1,0.9-1.6,1.3
				c-0.1,0.4-0.1,0.8-0.2,1.3c-0.4,0.2-0.9,0.5-1.3,0.7c-0.1,0.3-0.2,0.6-0.3,0.9c0,0.3,0,0.5,0,0.8c-0.8,0.6-1.7,1.3-2.5,1.9
				c-0.1,0-0.2,0.1-0.3,0.1c-0.3,0.2-0.6,0.5-0.9,1.2c-0.3,0.6-0.6,1-1,1.2c-0.3,0.2-0.7,0.3-1.2,0.3c0,0.4,0.1,0.8,0.1,1.3
				c-0.9,0.3-1.6,0.5-2.2,0.5c-0.6,0.4-1.2,0.9-1.7,1.3c-0.5,0.5-0.8,0.9-1.1,1.1c-0.2,0.1-0.5,0.2-1,0.4c-1.2,0.7-2.5,1.3-3.7,2
				c-0.2,0.3-0.4,0.5-0.6,0.8c-0.5,0.1-1,0.3-1.6,0.4C747.5,247.1,747.1,247.5,746.7,247.9z M750.1,238.8c0.5-0.4,1-0.7,1.4-1.1
				c0.5-0.3,1-0.5,1.5-0.8c1.2-1,2.4-2,3.6-2.9c0.8-0.8,1.6-1.6,2.4-2.4c0.6-0.9,1.2-1.7,1.8-2.6c0.6-1.2,1.2-2.4,1.9-3.7
				c-0.1-0.1-0.3-0.2-0.4-0.3c-0.2,0-0.4-0.1-0.6-0.1c-0.1-0.1-0.2-0.3-0.3-0.4c-1.1,0.4-2,0.1-2.7-0.9c-0.9-0.1-2.1-0.1-3.6-0.2
				c-0.5-0.1-1-0.3-1.5-0.4c-0.5,0.2-1,0.3-1.5,0.5c-0.5,0-1,0-1.5-0.1c-0.9,0.2-1.7,0.4-2.6,0.5c-0.9,0.6-2.2,0.9-3.7,1
				c-0.3,0-0.7,0-1,0c-0.4,0.3-0.9,0.6-1.3,0.9c-0.9,0-1.7,0-2.6,0c-1.1,0.4-2.2,0.9-3.3,1.3c-0.2-0.1-0.5-0.2-0.7-0.3
				c-0.1,0-0.1,0.1-0.3,0.3c-0.2,0.1-0.3,0.2-0.4,0.3c-1,0.7-2.1,1.1-3.4,1.3c-0.4,0.5-0.8,1-1.2,1.4c-0.3-0.2-0.7-0.5-1-0.7
				c-0.1,0-0.3,0-0.4,0.1c-0.4-0.1-0.7-0.1-1.1-0.2c0.2,0.6,0.5,1.3,0.7,1.9c0,0.5,0,0.9,0.1,1.4c0.4,0.5,0.8,0.9,1.2,1.4
				c0.1,0.6,0.1,1.2,0.2,1.8c-0.4,0.3-0.8,0.5-1.2,0.8c0,0.2-0.1,0.4-0.1,0.5c0.4,0.6,0.7,1.2,1.1,1.8c0.3,0.3,0.7,0.7,1,1
				c0.7,0,1.2,0.3,1.6,0.9c0,0.1,0.1,0.2,0.1,0.2c0.2,0.1,0.4,0.3,0.6,0.4c0.3-0.3,0.5-0.6,0.8-0.9c0.4,0.7,0.8,1.4,1.3,2.2
				c1.7-0.4,3.5-0.4,5.4,0.2c0.3-0.2,0.6-0.3,0.8-0.5c0.8-0.1,1.6-0.1,2.4-0.2c0.7-0.4,1.3-0.8,2-1.2c0.8-0.4,1.6-0.7,2.3-1.1
				c0.4-0.3,0.8-0.7,1.3-1C749.5,238.9,749.8,238.8,750.1,238.8z"/>
			<path d="M765.1,289.8c-0.4-0.2-0.7-0.3-1.1-0.5c-0.7,0.4-1.4,0.8-2.1,1.2c-1.1-0.4-2.2-0.7-3.3-1c-0.4,0.1-0.7,0.3-1.1,0.4
				c-0.3-0.1-0.7-0.3-1-0.4c-0.2,0.3-0.4,0.6-0.6,0.9c-0.8-0.4-1.6-0.7-2.4-1.1c-0.8-0.1-1.6-0.2-2.4-0.3c-0.6-0.5-1.2-0.9-1.8-1.4
				c-1-0.4-1.7-0.9-2-1.7c-0.6,0-1.3,0-1.9,0c0.2-0.4,0.3-0.8,0.5-1.2c-0.5-0.1-1-0.2-1.5-0.3c0.3-0.1,0.6-0.5,0.9-1.2
				c0-0.3,0.1-0.5,0.1-0.8c-0.4-0.1-0.7-0.2-1.1-0.3c0-0.1-0.1-0.2-0.1-0.2c-0.3-0.1-0.7-0.2-1-0.3c0-0.4-0.1-0.8-0.1-1.2
				c-0.5-0.5-0.9-1-1.4-1.5c0.2-0.5,0.3-1,0.5-1.5c-0.1-0.2-0.2-0.4-0.3-0.7c-0.4-0.9-0.6-2.1-0.7-3.7c0-0.5,0.1-1,0.1-1.5
				c0.1-0.2,0.2-0.4,0.3-0.6c0-0.5-0.1-1.1-0.1-1.6c0.5-0.5,1.1-1,1.6-1.5c-0.4-1-0.6-2-0.7-3.2c1-1.3,2.1-2.5,3.1-3.8
				c0.3,0,0.5,0.1,0.8,0.1c0.2-0.3,0.3-0.5,0.5-0.8c0.5-0.3,1-0.6,1.6-0.8c0.2-0.3,0.4-0.6,0.6-1c0.4,0,0.9,0,1.3-0.1
				c0.5-0.6,1-1,1.5-1.3c0.1-0.1,0.2-0.1,0.4-0.1c0.2-0.1,0.3-0.2,0.3-0.2c0.9-0.5,1.8-1,2.7-1.4c0.3,0,0.7-0.1,1-0.1
				c1.7-0.9,3.4-1.8,5.1-2.7c0.5-0.1,0.9-0.2,1.4-0.3c0.1-0.2,0.2-0.4,0.4-0.6c1-0.1,1.9-0.3,2.9-0.4c0.2-0.3,0.4-0.6,0.6-0.9
				c0.6-0.3,1.3-0.7,1.9-1c0.2,0.1,0.5,0.1,0.7,0.2c0.4-0.2,0.8-0.5,1.2-0.7c0.2-0.3,0.5-0.5,0.7-0.8c1.1-0.2,2.1-0.4,3.2-0.7
				c1.1-0.8,2.1-1.6,3.2-2.4c0.1,0,0.3,0.1,0.4,0.1c0.4-0.2,0.8-0.4,1.1-0.6c0.3-0.2,0.8-0.4,1.4-0.7c0.8-0.4,1.5-0.8,1.9-1
				c0.2-0.1,0.4-0.2,0.6-0.3c0.7-0.7,1.5-1.3,2.2-2c0.5-0.1,0.9,0,1.2,0.2c0.1-0.2,0.2-0.5,0.4-0.8c0.5,0.1,0.9,0.1,1.3-0.1
				c0.5-0.2,0.8-0.8,1.1-1.8c0.5-0.3,1-0.4,1.6-0.4c0.2-0.3,0.5-0.6,0.7-0.8c0.4,0,0.8,0,1.2,0c0.7-1,1.5-2.1,2.2-3.1
				c0.3,0.5,0.7,0.9,1,1.4c0.1,0,0.1-0.1,0.2-0.1c1.1,0.9,2.1,1.7,3.2,2.6c-0.3,0.9-0.7,1.8-1,2.7c-0.3,0.2-0.5,0.4-0.8,0.6
				c-0.1,0.6-0.2,1.3-0.3,1.9c-0.5,0.2-0.9,0.4-1.4,0.6c-0.5,0.2-1.1,0.5-2,0.8c-0.1,0.8-0.4,1.3-0.7,1.4c-0.2,0.1-0.4,0.1-0.8-0.1
				c-0.1,0.2-0.1,0.4-0.2,0.6c-0.5,0.1-1.1,0.2-1.6,0.3c-0.4,0.5-0.9,1-1.3,1.5c-0.3,0-0.5,0-0.8,0c0,0.6,0.1,1.1,0.1,1.7
				c-0.5,0-0.9,0-1.4,0c-0.8,0.2-1.7,0.4-2.5,0.6c-0.4,0.1-1,0.3-1.7,0.5c-0.4,0.2-1.1,0.6-2.4,1.2c-0.2,0.1-0.5,0.2-0.7,0.4
				c-0.2,0.1-0.5,0.2-0.7,0.4c-0.5,0.1-1.1,0.2-1.6,0.3c-0.5,0.3-1.1,0.5-1.7,0.6c-0.1,0-0.2,0-0.3,0.1c-0.2,0.5-0.4,1-0.7,1.6
				c-0.8,0-1.5-0.1-2.3-0.1c-0.3,0.3-0.6,0.5-0.9,0.8c-0.2,0-0.4,0.1-0.6,0.1c-0.5,0.2-1.1,0.4-1.8,0.6c-0.1,0.1-0.2,0.2-0.3,0.3
				c-0.3,0.1-0.7,0.3-1,0.4c-0.5,0.2-0.9,0.4-1.4,0.6c-1,0.4-2,0.8-2.9,1.1c0.1,0.4,0.2,0.9,0.3,1.3c0.9-0.4,1.9-0.8,2.8-1.2
				c0.7-0.1,1.4-0.2,2.1-0.3c0,0.2,0,0.3,0,0.5c0.5,0,1-0.1,1.6-0.1c1.2-0.3,2.4-0.3,3.7,0c0.3,0,0.6,0.1,1,0.2
				c0.1,0,0.3,0.1,0.4,0.1c-0.1,0-0.1,0.1-0.2,0.1c0.4-0.1,0.8-0.1,1.2-0.2c0.5,0.2,1.1,0.4,1.6,0.6c0.3,0.1,0.6,0.2,0.9,0.4
				c0.1,0,0.3,0,0.4-0.1c0.3,0.1,0.6,0.1,1,0.2c0.8-0.4,1.5-0.4,2.1,0c0.3,0,0.5-0.1,0.8-0.1c0.3,0.3,0.6,0.7,0.9,1.1
				c0.2,0.1,0.3,0.2,0.5,0.3c0.2,0,0.4,0,0.6-0.1c0.4-0.2,0.8-0.4,1.3-0.6c0.3,0.4,0.6,0.8,0.8,1.2c0.2,0.2,0.4,0.4,0.6,0.6
				c0.1-0.3,0.2-0.6,0.3-1c0.3,0.5,0.7,0.9,1,1.4c0.6,0.4,1.2,0.7,1.8,1.1c0.4,1,0.8,2,1.2,3c-0.1,0.8-0.2,1.5-0.3,2.3
				c0,0.2,0.1,0.4,0.1,0.6c-0.5,0.9-1,1.7-1.5,2.6c-0.3,0.2-0.6,0.3-0.9,0.5c0.1,0.3,0.1,0.5,0.2,0.8c-0.6,0.4-1.2,0.7-1.8,1.1
				c-0.1,0.4-0.2,0.8-0.4,1.3c-0.5,0.2-0.9,0.4-1.4,0.6c-0.1,0.3-0.3,0.6-0.4,0.8c0,0.3-0.1,0.5-0.1,0.8c-0.9,0.5-1.8,1.1-2.8,1.6
				c-0.1,0-0.2,0.1-0.3,0.1c-0.3,0.1-0.6,0.5-1,1.1c-0.4,0.6-0.8,0.9-1.1,1.1c-0.4,0.1-0.8,0.2-1.2,0.2c0,0.4,0,0.9,0,1.3
				c-0.9,0.2-1.6,0.3-2.2,0.1c-0.6,0.4-1.3,0.7-1.9,1.1c-0.5,0.5-0.9,0.8-1.2,0.9c-0.2,0.1-0.5,0.1-1.1,0.2c-1.3,0.5-2.6,1-4,1.5
				c-0.2,0.2-0.5,0.5-0.7,0.7c-0.5,0.1-1.1,0.1-1.6,0.2C766.1,289,765.6,289.4,765.1,289.8z M769.7,280.9c0.5-0.3,1-0.6,1.6-0.9
				c0.5-0.2,1-0.4,1.6-0.6c1.3-0.8,2.6-1.6,3.9-2.4c0.9-0.7,1.8-1.4,2.7-2.1c0.7-0.8,1.4-1.6,2.1-2.4c0.8-1.2,1.6-2.3,2.3-3.5
				c-0.1-0.1-0.2-0.3-0.4-0.4c-0.2-0.1-0.4-0.1-0.6-0.2c-0.1-0.2-0.1-0.3-0.2-0.5c-1.2,0.2-2-0.2-2.5-1.3c-0.9-0.2-2-0.5-3.5-0.8
				c-0.5-0.2-1-0.4-1.4-0.7c-0.5,0.1-1,0.2-1.5,0.2c-0.5-0.1-1-0.2-1.5-0.3c-0.9,0-1.7,0.1-2.6,0.1c-1,0.5-2.3,0.6-3.8,0.4
				c-0.3,0-0.7-0.1-1-0.1c-0.5,0.2-0.9,0.5-1.4,0.7c-0.9-0.2-1.7-0.3-2.6-0.5c-1.1,0.3-2.3,0.5-3.4,0.8c-0.2-0.1-0.4-0.3-0.6-0.4
				c-0.1,0-0.2,0.1-0.3,0.3c-0.2,0.1-0.3,0.2-0.4,0.2c-1.1,0.5-2.2,0.8-3.5,0.8c-0.5,0.4-0.9,0.9-1.4,1.3c-0.3-0.3-0.6-0.6-0.9-0.9
				c-0.1,0-0.3,0-0.4,0c-0.3-0.1-0.7-0.3-1-0.4c0.1,0.7,0.3,1.4,0.4,2.1c0,0.5-0.1,0.9-0.1,1.4c0.3,0.5,0.7,1.1,1,1.6
				c0,0.6,0,1.3,0,1.9c-0.4,0.2-0.8,0.4-1.2,0.6c-0.1,0.2-0.1,0.3-0.2,0.5c0.3,0.7,0.6,1.3,0.9,2c0.3,0.4,0.6,0.8,0.8,1.2
				c0.7,0.1,1.2,0.5,1.4,1.2c0,0.1,0.1,0.2,0.1,0.3c0.2,0.2,0.4,0.4,0.5,0.6c0.3-0.3,0.6-0.5,0.9-0.8c0.3,0.8,0.6,1.6,1,2.4
				c1.8-0.2,3.5,0.2,5.3,1.1c0.3-0.1,0.6-0.3,0.9-0.4c0.8,0.1,1.6,0.1,2.4,0.2c0.7-0.3,1.4-0.6,2.1-0.9c0.8-0.2,1.6-0.5,2.5-0.7
				c0.5-0.3,0.9-0.5,1.4-0.8C769.1,280.9,769.4,280.9,769.7,280.9z"/>
			<path d="M770.9,326.2c-0.7,0.2-1.3,0.1-1.9-0.3c-0.9-0.3-1.9-0.9-2.9-1.8c-0.3-0.3-0.6-0.5-0.9-0.8c-0.4-0.2-0.9-0.3-1.3-0.5
				c-0.2-0.2-0.4-0.5-0.6-0.7c-0.4-0.4-0.8-0.7-1.2-1.1c-0.1-0.3-0.2-0.6-0.3-0.9c-0.2-0.1-0.3-0.2-0.5-0.3
				c-0.7-1.1-1.6-1.9-2.6-2.3c-0.4-0.3-0.7-0.7-0.8-1c-0.1-0.2-0.1-0.5-0.1-0.7c-0.9-0.8-1.6-2.1-2.1-3.7c-0.4-1.4-0.6-2.3-0.4-2.8
				c0.1-0.6,0.3-1.3,0.4-1.9c0.3-0.3,0.5-0.6,0.8-0.9c0.1,0,0.2-0.1,0.3-0.1c0.8-0.3,1.3-0.8,1.6-1.7c0.6-0.3,1.2-0.7,1.7-1
				c0.2-0.4,0.4-0.7,0.6-1.1c1.1-0.6,2.2-1.1,3.3-1.7c0.7-0.2,1.4-0.5,2-0.7c0.5-0.2,1-0.4,1.5-0.5c0.2,0,0.4,0.1,0.6,0.1
				c0.3-0.3,0.7-0.6,1.1-0.7c2.7-0.6,4.4-1.1,5-1.3c0.5-0.5,0.9-1,1.4-1.5c0.6,0.1,1.1,0.2,1.7,0.4c0.8-0.2,1.6-0.4,2.4-0.5
				c0.5-0.3,1-0.5,1.5-0.8c0.5,0,1,0.1,1.6,0.1c0.6-0.4,1.1-0.8,1.7-1.3c0.5,0.2,1.1,0.4,1.6,0.6c0.3-0.1,0.6-0.1,0.9-0.2
				c1.1-0.4,2.2-0.8,3.2-1.2c0.2-0.1,0.4-0.2,0.6-0.2c1.3-0.5,2.6-0.9,3.9-1.4c1.4-0.4,2.7-0.7,4.1-1.1c0.2-0.2,0.4-0.4,0.6-0.6
				c0.9-0.3,1.8-0.7,2.8-1c0.8-0.3,1.7-0.6,2.5-0.9c0.3-0.1,0.6-0.2,0.9-0.3c1.9-0.5,3.8-0.9,5.7-1.4c1.5,2.7,2.2,3.9,2.1,3.6
				c0.3,1.1,0.1,2.2-0.8,3.3c-0.2,0.2-0.5,0.3-0.7,0.5c-0.3,0.7-0.6,1.4-0.9,2c-0.7,0.1-1.4,0.1-2.1,0.2c-0.1,0-0.2,0.1-0.4,0.1
				c-1.2,0.2-2.1,0.2-2.5,0c-0.6,0.3-1.2,0.7-1.9,1c-0.5,0.3-1.1,0.7-1.6,1c-0.7,0-1.4-0.1-2.2-0.1c-1.1,0.4-2.1,0.5-3,0.4
				c-0.3,0.1-0.8,0.2-1.5,0.3c-0.2,0-0.4,0.1-0.6,0.1c-0.3,0.4-0.5,0.8-0.8,1.2c-0.4,0-0.7,0-1.1,0c-0.4,0.4-0.7,0.6-0.9,0.6
				c-0.4,0.1-0.9,0.1-1.6,0c-0.3,0.2-0.5,0.3-0.8,0.5c-1,0.1-2.1,0.3-3.1,0.4c-0.7,0.2-1.3,0.4-2,0.7c-0.7,0-1.4,0-2.2,0
				c-0.5,0.3-1.1,0.7-1.6,1c-1.4,0.3-2.8,0.6-4.2,1c-0.1,0.2-0.3,0.3-0.4,0.5c-0.8,0.1-1.5,0.2-2.3,0.2c-0.9,0.2-1.8,0.5-2.7,0.7
				c-0.4,0-0.6,0-0.7,0c-1.1,0.4-1.9,0.6-2.6,0.8c-0.4,0.2-0.8,0.5-1.2,0.7c-0.5,0.2-0.9,0.3-1.4,0.5c-0.3,0.3-0.7,0.6-1,1
				c-0.2,0-0.3,0-0.5,0.1c-0.2,0.5-0.6,1-1.2,1.5c0.1,0.3,0.2,0.6,0.2,0.8c0,0.4,0,0.9,0,1.3c0.3,0.1,0.6,0.2,0.9,0.3
				c0.1,0.3,0.2,0.5,0.3,0.8c0.2,0.3,0.4,0.6,0.4,0.8c0,0.1,0.1,0.2,0.1,0.3c0.3,0.6,0.7,1,1.3,1.2c0.1,0.2,0.3,0.3,0.4,0.5
				c0.8,0.2,1.5,0.8,2,1.7c0.3,0.2,1,0.7,2,1.4c0.9-0.3,1.7,0.1,2.4,1.1c0.2,1,0.6,1.6,0.9,1.8c0.1,1.4,0,2.3-0.4,2.8
				C773.1,325.4,772.3,325.9,770.9,326.2z"/>
			<path d="M774.8,363.5c-0.8,0.1-1.8-0.4-3.1-1.4c-1.1-0.2-2-0.6-2.7-1.1c-0.1-0.2-0.1-0.4-0.2-0.6c-0.7-0.3-1.3-0.5-2-0.8
				c-0.2-0.6-0.4-1.2-0.5-1.7c-0.5-0.6-0.9-1.1-1.4-1.7c-0.6-0.2-1.2-0.5-1.9-0.7c-0.1-0.4-0.1-0.7-0.2-1.1
				c-0.4-0.7-0.6-1.2-0.8-1.7c-0.3-0.1-0.6-0.3-0.8-0.4c0-0.2-0.1-0.5-0.1-0.9c-0.1-0.8-0.8-1.5-2-2.1c0.3-0.5,0.6-1.1,0.9-1.6
				c0-0.3-0.1-0.6-0.2-1.2c-0.1-0.8-0.1-1.6,0.1-2.2c-0.1-0.5-0.2-1.1-0.3-1.6c0.1-0.3,0.2-0.6,0.3-0.9c-0.1-2.5,0.5-4.2,1.8-5.2
				c0.1,0,0.2,0,0.3-0.1c0.1-0.4,0.2-0.9,0.3-1.3c0.5-0.3,1-0.7,1.5-1c0.2-0.4,0.3-0.9,0.5-1.3c0.5-0.1,0.9-0.2,1.4-0.4
				c1.3-0.7,2.6-1.5,3.9-2.2c1.1-0.3,2.3-0.6,3.4-0.9c0.5,0.1,1.1,0.1,1.6,0.2c0.7-0.2,1.3-0.3,2-0.5c0.5,0,1.1,0.1,1.6,0.1
				c0.2-0.1,0.4-0.2,0.6-0.3c0.4,0.1,0.9,0.3,1.3,0.4c-0.1,0-0.2-0.1-0.2-0.1c0.6-0.1,1.2-0.1,1.9,0c0.2,0,0.3-0.1,0.5-0.1
				c0.7-0.3,1.5-0.6,2.2-0.9c1.1-0.3,2.1,0,3.2,0.8c0.1,0,0.3,0,0.6-0.1c0.3-0.1,0.8-0.3,1.5-0.7c0.7-0.5,1.3-0.7,1.6-0.8
				c0.8-0.2,1.6-0.2,2.5,0c-0.6,0.7-0.9,1.6-0.6,2.7c0,0.1,0,0.2,0.1,0.3c0.3,0.1,0.6,0.3,1,0.7c1.7,0.2,3.2,0.7,4.5,1.4
				c0.2,0.1,0.3,0.2,0.5,0.4c0.2-0.1,1,0,2.3,0.1c0.1,0.3,0.1,0.6,0.2,0.9c0.2,0,0.3,0.1,0.5,0.1c0.1,0.3,0.2,0.5,0.4,0.8
				c0.6,0.3,0.9,0.4,1,0.5c0.1,0.1,0.7,0.8,1.6,2.1c0.5,0.2,1,0.6,1.5,1.1c0.2,0.3,0.4,0.6,0.6,1c0.2,0.1,0.4,0.2,0.6,0.3
				c0.9,1.9,1.4,3.2,1.5,3.7c0.1,0.6,0.1,1.2-0.1,1.8c0.1,0.2,0.1,0.4,0.2,0.5c-0.1,0.3-0.2,0.6-0.3,0.9c-0.4,1-0.8,2-1,3
				c-0.3,0.7-0.6,1.4-1,2.2c-0.1,0-0.3,0-0.4,0.1c-0.9,1.9-2.4,3.1-4.6,3.4c-0.3-0.1-0.7-0.1-1-0.2c-1,0.3-2.1,0.6-3.1,0.8
				c-0.2-0.3-0.5-0.6-0.7-0.9c-0.9-0.2-1.8-0.5-2.6-0.7c-0.8-0.6-1.5-1.2-2.3-1.7c-0.5,0.1-1,0.1-1.5,0.2c-1.8-2.1-3.3-3.9-4.5-5.7
				c-1-0.5-1.6-1.4-1.8-2.7c0-0.1,0-0.2-0.1-0.3c-0.5-0.6-1-1.2-1.5-1.8c-0.1-0.6-0.2-1.1-0.3-1.7c-0.5-0.8-0.9-1.5-1.4-2.3
				c0.2-0.7,0.3-1.4,0.5-2c0-0.1,0-0.1,0-0.2c-0.5,0-1.3,0-2.4,0.1c-0.2-0.2-0.5-0.4-0.7-0.7c-0.4,0.1-0.8,0.1-1.2,0.2
				c-0.6-0.1-1.2-0.1-1.7-0.2c-1.5,0.5-2.5,0.8-2.9,0.9c-0.1-0.1-0.2-0.2-0.4-0.3c-0.8,0.2-1.4,0.3-1.8,0.3c-0.1,0-0.2,0-0.3,0
				c-0.1,0-0.2,0.1-0.3,0.1c-0.5,0.1-0.9,0.5-1.1,1.1c-0.7,0.4-1.1,0.8-1.2,1.3c-0.1,0.3-0.3,0.6-0.4,0.8c-0.1,0.8-0.1,1.5-0.2,2.3
				c-0.1,0-0.2,0-0.3,0.1c0,0.3,0,0.5,0,0.8c0.2,1.1,0.4,2.2,0.6,3.4c0.2,0.6,0.4,1.3,0.6,1.9c0.3,0.3,0.6,0.6,0.8,0.9
				c0.1,0.2,0.2,0.4,0.3,0.6c0.5,0.2,1.1,0.5,1.6,0.7c0.1,0.2,0.1,0.3,0.2,0.5c0.4,0.8,0.8,1.6,1.1,2.4c0.5,0.2,0.9,0.6,1.3,1.1
				c0.2,0.1,0.3,0.1,0.5,0.2c0.5,1.3,1.2,2,2.3,2c1,0.8,1.6,2,1.8,3.5c0,0.1,0,0.3,0.1,0.4C776.8,362.6,775.7,363.4,774.8,363.5z
				 M801,348.2c0.2,0,0.6-0.2,1.1-0.5c0-0.2,0-0.4,0-0.6c0-0.1-0.1-0.1-0.1-0.2c0-0.1,0-0.2-0.1-0.4c-0.1-0.1-0.1-0.3-0.2-0.4
				c0-0.1,0-0.2,0-0.4c0-0.1,0-0.3-0.1-0.3c-0.3-0.3-0.6-0.6-0.8-1c-0.1-0.3-0.2-0.7-0.3-1c-0.1-0.2-0.2-0.3-0.3-0.5
				c-0.8-0.5-1.6-1-2.4-1.4c-0.3-0.3-0.6-0.7-1-1c-1-0.4-2-0.8-3-1.2c-0.2-0.3-0.5-0.6-0.7-0.8c-1.1,0-2.1-0.3-3-0.9
				c-0.2-0.1-0.5-0.2-0.7-0.3c0.6,0.7,1,1.5,1.2,2.5c0.1,0.2,0.3,0.4,0.4,0.7c0.3,0,0.6,0.1,0.9,0.1c0.1,0.5,0.1,1,0.2,1.5
				c0.4,0.2,0.9,0.4,1.3,0.6c0,0.2,0.1,0.4,0.1,0.6c-0.1,0.4-0.1,0.8-0.2,1.3c0.5,0.1,1,0.2,1.5,0.3c0,0.2,0.1,0.5,0.1,0.7
				c0.4-0.1,0.7-0.1,1.1-0.2c0.2,0.5,0.3,0.9,0.5,1.4c0.1,0.1,0.2,0.2,0.3,0.3c0.3,0,0.6,0,0.9,0c0.7,0.4,1.4,0.7,2,1.1
				C800.2,348.3,800.6,348.3,801,348.2z"/>
			<path d="M777.6,410.9c-0.5-0.4-0.9-0.9-1.4-1.3c-0.8-0.4-1.7-0.8-2.5-1.2c-0.2-0.3-0.4-0.6-0.6-0.9c-0.5-0.3-0.9-0.5-1.4-0.8
				c-0.1-0.7-0.1-1.5-0.2-2.2c-0.4-0.5-0.9-0.9-1.3-1.4c0-0.7,0-1.4,0-2.2c-0.3-0.4-0.7-0.8-1-1.3c0.1-0.4,0.2-0.8,0.3-1.2
				c-0.1-0.5-0.2-0.9-0.3-1.4c-0.3,0-0.5,0-0.8,0c0.1-1.3,0.1-2.7,0.1-4c0-0.6-0.1-1.1-0.1-1.7c-0.2-0.4-0.5-0.8-0.7-1.2
				c0.2-0.4,0.4-0.7,0.5-1.1c0.1,0.7,0.2,1.3,0.2,1.7c-0.1-0.5-0.3-2.2-0.6-5c0-0.1,0.1-0.2,0.1-0.3c0-0.3,0.1-0.6,0.1-0.9
				c-0.3-0.4-0.5-0.9-0.8-1.3c0.1-0.4,0.3-1.2,0.4-2.3c0-1.5-0.1-2.6-0.1-3c0-0.3,0-0.6-0.1-0.8c0.2-0.5,0.2-1,0.2-1.6
				c-0.1-0.6-0.2-1.1-0.4-1.6c0.2-0.5,0.5-1,0.7-1.5c0-0.3,0.1-0.6,0.1-0.9c0-0.2,0-0.6,0.2-1.2c0-2.6,1.8-4.1,5.5-4.6
				c0.3,0,0.6-0.1,0.9-0.1c0.5,0.6,1,1.2,1.6,1.8c0.4,0.8,0.8,1.6,1.1,2.4c-0.2,0.7-0.4,1.3-0.7,2c0,0.5,0.1,1,0.1,1.5
				c-0.1,0-0.2,0-0.3,0c-0.2,0.7-0.7,1.4-1.4,1.9c0,0.3,0,0.6,0,0.9c-0.4,0-0.8,0.1-1.3,0.1c-0.1,0.5-0.1,0.9-0.2,1.4
				c-0.1,0.1-0.1,0.2-0.2,0.3c0.6,4.5,1.2,9,1.7,13.6c0.2,1.1,0.4,2.2,0.6,3.4c0,0.1,0,0.2,0,0.3c0.2,0.1,0.3,0.1,0.5,0.2
				c0.1,0.5,0.2,1,0.2,1.5c0.1,0.1,0.2,0.1,0.3,0.2c0.2,1.5,0.7,3,1.3,4.3c0.2,0,0.3,0.1,0.5,0.1c0.1-0.1,0.3-0.2,0.7-0.5
				c0-0.2-0.1-0.4-0.1-0.6c0.3-0.5,0.6-1,0.9-1.5c0-0.3,0-0.7,0-1c0.2-0.2,0.4-0.4,0.7-0.6c0.1,0.1,0.3,0.2,0.4,0.3
				c-0.1-0.4-0.2-0.8-0.2-1.2c0.2-0.3,0.5-0.6,0.7-0.9c0-0.2,0-0.6,0-1.1c0-1,0.1-1.9,0.4-2.9c0-0.3,0-0.7,0-1
				c0.1-0.3,0.2-0.5,0.3-0.8c-0.2-0.5-0.4-1-0.6-1.5c0.3-0.3,0.6-0.6,0.8-0.9c0-0.1,0-0.2,0-0.3c0.3-0.5,0.6-1.1,1-1.6
				c0.3-1.2,0.6-2.4,0.9-3.5c0.2-0.4,0.5-0.8,0.7-1.2c0.1-1.4,0.2-2.8,0.3-4.2c0.2-0.2,0.4-0.3,0.6-0.5c0.5-1.1,1-2.2,1.5-3.3
				c1-0.7,2-1.3,3-2c0.5-0.5,1-1,1.5-1.5c1.7-0.4,3.3-0.7,5-1.1c0.2,0.1,0.4,0.2,0.6,0.4c1.5,0,2.8,0.4,4,1.3
				c0.6,1.1,1.4,1.6,2.4,1.5c0.1,0.6,0.3,1.1,0.4,1.7c0.5,0.2,1.1,0.8,1.6,1.7c0.4,0.5,0.9,1.1,1.3,1.6c1,2.4,1.9,4.8,2.8,7.2
				c0.1,0.4,0.2,0.9,0.4,1.3c0.1,0.8,0.2,1.6,0.3,2.4c0.4,1.3,0.7,2.6,1.1,3.9c0,2.6-0.1,5.1-0.1,7.7c-0.2,0.1-0.3,0.2-0.5,0.3
				c-0.2,0.7-0.7,1.6-1.5,2.5c-0.2,0-0.3,0-0.5,0c-0.3,0.7-0.6,1.3-0.9,2c-0.8-0.3-1.6-0.5-2.3-0.8c-0.3-0.1-0.6-0.1-0.9-0.2
				c-1.6-0.4-2.5-1.5-2.5-3.3c0-1.4,0.5-2.5,1.6-3.3c0.1,0,0.2,0,0.3,0c0-0.5,0-0.9-0.1-1.4c-0.1-0.6-0.3-1.1-0.4-1.7
				c0.3-0.5,0.6-1.1,0.9-1.6c-0.2-0.3-0.4-0.5-0.5-0.8c0-1-0.4-2-0.9-2.8c-0.1-1.2-0.5-2.3-1.4-3.3c0-0.5,0-1-0.1-1.5
				c-0.2-0.3-0.4-0.7-0.6-1c-0.1-0.5-0.3-1.1-0.4-1.6c-0.1-0.1-0.1-0.1-0.2-0.2c-0.1-0.2-0.2-0.4-0.3-0.7c-0.3-0.3-0.6-0.6-1-0.9
				c0-0.1-0.1-0.2-0.1-0.3c-0.5-0.3-1-0.6-1.4-0.9c-0.2-0.4-0.5-0.8-0.7-1.2c-0.9-0.2-1.6-0.3-2.2-0.3c-0.9,0.2-1.5,0.4-1.8,0.6
				c-0.3,0.2-0.5,0.7-0.8,1.6c-0.2,0-0.3,0-0.5,0c-0.2,0.5-0.4,1-0.6,1.5c-0.3,1.2-0.7,2.2-1.1,2.8c0.1,0.8,0.1,1.5,0.2,2.3
				c-0.3,0.5-0.7,1-1,1.5c0,0.9-0.1,1.7-0.1,2.6c-0.2,0.3-0.3,0.7-0.5,1c-0.3,1.5-0.6,3-0.9,4.5c-0.3,0.2-0.7,0.4-1,0.6
				c0.2,0.1,0.5,0.3,0.7,0.4c0,1-0.3,2.3-1,4c-0.1,0.7-0.2,1.4-0.2,2.1c-0.2,0.1-0.5,0.2-0.7,0.3c0,0.6,0,1.2,0,1.8
				c-0.5,1.1-1,2.2-1.5,3.2c-0.8,0.4-1.6,1.2-2.3,2.5c-0.2,0.4-0.4,0.8-0.7,1.3c-0.4-0.1-0.8-0.2-1.2-0.3c-0.6,0.5-1.3,0.8-2,0.8
				C777.8,410.9,777.7,410.9,777.6,410.9z"/>
		</g>
	</g>
</g>
</svg>
